<?xml version="1.0" encoding="utf-8" standalone="no"?>
<!DOCTYPE svg PUBLIC "-//W3C//DTD SVG 1.1//EN"
  "http://www.w3.org/Graphics/SVG/1.1/DTD/svg11.dtd">
<svg xmlns:xlink="http://www.w3.org/1999/xlink" width="402.300315pt" height="169.957805pt" viewBox="0 0 402.300315 169.957805" xmlns="http://www.w3.org/2000/svg" version="1.1">
 <metadata>
  <rdf:RDF xmlns:dc="http://purl.org/dc/elements/1.1/" xmlns:cc="http://creativecommons.org/ns#" xmlns:rdf="http://www.w3.org/1999/02/22-rdf-syntax-ns#">
   <cc:Work>
    <dc:type rdf:resource="http://purl.org/dc/dcmitype/StillImage"/>
    <dc:date>2026-10-04T23:47:44.209564</dc:date>
    <dc:format>image/svg+xml</dc:format>
    <dc:creator>
     <cc:Agent>
      <dc:title>Matplotlib v3.10.3, https://matplotlib.org/</dc:title>
     </cc:Agent>
    </dc:creator>
   </cc:Work>
  </rdf:RDF>
 </metadata>
 <defs>
  <style type="text/css">*{stroke-linejoin: round; stroke-linecap: butt}</style>
 </defs>
 <g id="figure_1">
  <g id="patch_1">
   <path d="M 0 169.957805 
L 402.300315 169.957805 
L 402.300315 0 
L 0 0 
z
" style="fill: #ffffff"/>
  </g>
  <g id="axes_1">
   <g id="patch_2">
    <path d="M 32.035 146.079446 
L 186.281943 146.079446 
L 186.281943 15.118816 
L 32.035 15.118816 
z
" style="fill: #ffffff"/>
   </g>
   <g id="matplotlib.axis_1">
    <g id="xtick_1">
     <g id="line2d_1">
      <defs>
       <path id="mdd86b97c97" d="M 0 0 
L 0 -2.5 
" style="stroke: #000000; stroke-width: 0.6"/>
      </defs>
      <g>
       <use xlink:href="#mdd86b97c97" x="71.6985" y="146.079446" style="stroke: #000000; stroke-width: 0.6"/>
      </g>
     </g>
     <g id="text_1">
      <!-- −500 -->
      <g transform="translate(63.958851 154.787258) scale(0.075 -0.075)">
       <defs>
        <path id="TimesNewRomanPSMT-2212" d="M 3484 2000 
L 116 2000 
L 116 2256 
L 3484 2256 
L 3484 2000 
z
" transform="scale(0.015625)"/>
        <path id="TimesNewRomanPSMT-35" d="M 2778 4238 
L 2534 3706 
L 1259 3706 
L 981 3138 
Q 1809 3016 2294 2522 
Q 2709 2097 2709 1522 
Q 2709 1188 2573 903 
Q 2438 619 2231 419 
Q 2025 219 1772 97 
Q 1413 -75 1034 -75 
Q 653 -75 479 54 
Q 306 184 306 341 
Q 306 428 378 495 
Q 450 563 559 563 
Q 641 563 702 538 
Q 763 513 909 409 
Q 1144 247 1384 247 
Q 1750 247 2026 523 
Q 2303 800 2303 1197 
Q 2303 1581 2056 1914 
Q 1809 2247 1375 2428 
Q 1034 2569 447 2591 
L 1259 4238 
L 2778 4238 
z
" transform="scale(0.015625)"/>
        <path id="TimesNewRomanPSMT-30" d="M 231 2094 
Q 231 2819 450 3342 
Q 669 3866 1031 4122 
Q 1313 4325 1613 4325 
Q 2100 4325 2488 3828 
Q 2972 3213 2972 2159 
Q 2972 1422 2759 906 
Q 2547 391 2217 158 
Q 1888 -75 1581 -75 
Q 975 -75 572 641 
Q 231 1244 231 2094 
z
M 844 2016 
Q 844 1141 1059 588 
Q 1238 122 1591 122 
Q 1759 122 1940 273 
Q 2122 425 2216 781 
Q 2359 1319 2359 2297 
Q 2359 3022 2209 3506 
Q 2097 3866 1919 4016 
Q 1791 4119 1609 4119 
Q 1397 4119 1231 3928 
Q 1006 3669 925 3112 
Q 844 2556 844 2016 
z
" transform="scale(0.015625)"/>
       </defs>
       <use xlink:href="#TimesNewRomanPSMT-2212"/>
       <use xlink:href="#TimesNewRomanPSMT-35" transform="translate(56.396484 0)"/>
       <use xlink:href="#TimesNewRomanPSMT-30" transform="translate(106.396484 0)"/>
       <use xlink:href="#TimesNewRomanPSMT-30" transform="translate(156.396484 0)"/>
      </g>
     </g>
    </g>
    <g id="xtick_2">
     <g id="line2d_2">
      <g>
       <use xlink:href="#mdd86b97c97" x="115.769055" y="146.079446" style="stroke: #000000; stroke-width: 0.6"/>
      </g>
     </g>
     <g id="text_2">
      <!-- 0 -->
      <g transform="translate(113.894055 154.787258) scale(0.075 -0.075)">
       <use xlink:href="#TimesNewRomanPSMT-30"/>
      </g>
     </g>
    </g>
    <g id="xtick_3">
     <g id="line2d_3">
      <g>
       <use xlink:href="#mdd86b97c97" x="159.83961" y="146.079446" style="stroke: #000000; stroke-width: 0.6"/>
      </g>
     </g>
     <g id="text_3">
      <!-- 500 -->
      <g transform="translate(154.21461 154.787258) scale(0.075 -0.075)">
       <use xlink:href="#TimesNewRomanPSMT-35"/>
       <use xlink:href="#TimesNewRomanPSMT-30" transform="translate(50 0)"/>
       <use xlink:href="#TimesNewRomanPSMT-30" transform="translate(100 0)"/>
      </g>
     </g>
    </g>
    <g id="text_4">
     <!-- 沿航迹位置/m -->
     <g transform="translate(84.935971 166.055305) scale(0.08 -0.08)">
      <defs>
       <path id="SimSun-6cbf" d="M 3025 1725 
L 3025 175 
L 5025 175 
L 5025 1725 
L 3025 1725 
z
M 4925 3050 
Q 4925 2825 5262 2825 
Q 5600 2825 5775 2900 
Q 5925 2950 6012 2800 
Q 6100 2650 6100 2600 
Q 6100 2475 5775 2500 
L 4975 2500 
Q 4550 2550 4575 2975 
L 4575 4575 
L 3300 4575 
Q 3300 4200 3287 3825 
Q 3275 3450 3175 3125 
Q 3075 2800 2762 2487 
Q 2450 2175 1925 1975 
L 1900 2050 
Q 2225 2250 2462 2500 
Q 2700 2750 2800 3037 
Q 2900 3325 2937 3775 
Q 2975 4225 2950 4975 
L 3300 4725 
L 4550 4725 
L 4750 5000 
L 5125 4650 
L 4925 4475 
L 4925 3050 
z
M 2650 -600 
Q 2675 -150 2675 775 
Q 2675 1700 2650 2100 
L 3025 1875 
L 5000 1875 
L 5200 2125 
L 5575 1800 
L 5375 1650 
L 5375 350 
Q 5375 -50 5400 -350 
L 5025 -525 
L 5025 25 
L 3025 25 
L 3025 -425 
L 2650 -600 
z
M 2350 4375 
Q 1475 1425 1400 1150 
Q 1300 850 1300 362 
Q 1300 -125 1325 -325 
Q 1325 -425 1225 -425 
Q 1150 -425 962 -350 
Q 775 -275 775 -75 
Q 775 50 850 275 
Q 925 525 925 675 
Q 925 850 812 950 
Q 700 1050 325 1150 
L 325 1250 
Q 775 1200 875 1225 
Q 975 1250 1125 1450 
Q 1275 1650 2250 4400 
L 2350 4375 
z
M 325 3525 
Q 1150 3175 1187 2950 
Q 1225 2725 1137 2600 
Q 1050 2475 975 2475 
Q 900 2475 825 2650 
Q 700 2950 275 3450 
L 325 3525 
z
M 925 5025 
Q 1600 4750 1675 4600 
Q 1750 4450 1750 4375 
Q 1750 4275 1662 4125 
Q 1575 3975 1525 3975 
Q 1450 3975 1400 4175 
Q 1275 4475 875 4950 
L 925 5025 
z
" transform="scale(0.015625)"/>
       <path id="SimSun-822a" d="M 1525 75 
Q 2150 -25 2250 12 
Q 2350 50 2350 175 
L 2350 2225 
L 1250 2225 
Q 1225 1225 1050 637 
Q 875 50 300 -625 
L 250 -550 
Q 700 150 825 812 
Q 950 1475 925 2225 
Q 750 2225 475 2150 
L 250 2375 
L 925 2375 
Q 925 2900 925 3437 
Q 925 3975 900 4550 
L 1225 4300 
L 1450 4300 
Q 1600 4800 1650 5275 
L 2175 5025 
L 1975 4925 
Q 1750 4575 1575 4300 
L 2325 4300 
L 2550 4525 
L 2875 4200 
L 2675 4075 
L 2675 125 
Q 2675 -100 2575 -250 
Q 2475 -400 2150 -525 
Q 2050 -200 1525 -25 
L 1525 75 
z
M 1250 4150 
L 1250 2375 
L 2350 2375 
L 2350 4150 
L 1250 4150 
z
M 1525 3750 
Q 1800 3550 1937 3387 
Q 2075 3225 2075 3100 
Q 2075 3025 2037 2925 
Q 2000 2825 1887 2787 
Q 1775 2750 1725 3075 
Q 1675 3375 1475 3700 
L 1525 3750 
z
M 1525 1950 
Q 1875 1650 2012 1475 
Q 2150 1300 2112 1137 
Q 2075 975 1937 925 
Q 1800 875 1775 1175 
Q 1725 1450 1450 1875 
L 1525 1950 
z
M 3875 5075 
Q 4225 4850 4400 4687 
Q 4575 4525 4550 4362 
Q 4525 4200 4450 4150 
Q 4375 4100 4325 4100 
Q 4225 4100 4175 4350 
Q 4100 4650 3825 5025 
L 3875 5075 
z
M 5050 3925 
L 5425 4250 
L 5875 3775 
L 3525 3775 
Q 3325 3775 3050 3700 
L 2825 3925 
L 5050 3925 
z
M 5025 125 
Q 5025 -150 5225 -150 
L 5450 -150 
Q 5600 -150 5637 87 
Q 5675 325 5675 825 
L 5800 825 
Q 5825 425 5875 187 
Q 5925 -50 6150 -100 
Q 6000 -325 5862 -387 
Q 5725 -450 5675 -450 
L 5125 -450 
Q 4700 -450 4700 -50 
L 4700 2850 
L 3800 2850 
Q 3800 2150 3775 1587 
Q 3750 1025 3525 462 
Q 3300 -100 2625 -600 
L 2575 -525 
Q 3075 -25 3250 462 
Q 3425 950 3450 1625 
Q 3475 2300 3450 3225 
L 3825 3000 
L 4675 3000 
L 4900 3225 
L 5225 2900 
L 5025 2750 
L 5025 125 
z
" transform="scale(0.015625)"/>
       <path id="SimSun-8ff9" d="M 3550 925 
Q 3900 850 4162 825 
Q 4425 800 4425 1025 
L 4425 4000 
L 3600 4000 
L 3600 3100 
Q 3600 2000 3212 1425 
Q 2825 850 2125 475 
L 2075 550 
Q 2700 1025 2975 1600 
Q 3250 2175 3250 2900 
L 3250 4000 
L 2750 4000 
Q 2425 4000 2150 3925 
L 1925 4150 
L 3925 4150 
Q 3825 4475 3712 4675 
Q 3600 4875 3425 5075 
L 3475 5150 
Q 4175 4825 4212 4675 
Q 4250 4525 4250 4475 
Q 4250 4300 4050 4150 
L 5400 4150 
L 5675 4425 
L 6075 4000 
L 4750 4000 
L 4750 900 
Q 4775 425 4300 275 
Q 4225 650 3525 825 
L 3550 925 
z
M 2550 3375 
L 3050 3100 
L 2850 2975 
Q 2375 2150 1825 1650 
L 1775 1725 
Q 2100 2175 2287 2612 
Q 2475 3050 2550 3375 
z
M 4925 3125 
L 4975 3200 
Q 5450 2850 5675 2600 
Q 5900 2350 5925 2162 
Q 5950 1975 5850 1862 
Q 5750 1750 5700 1750 
Q 5625 1750 5575 1975 
Q 5475 2275 5312 2562 
Q 5150 2850 4925 3125 
z
M 1575 700 
Q 1750 575 2225 325 
Q 2700 75 3750 37 
Q 4800 0 6150 175 
L 6150 75 
Q 5675 -75 5650 -325 
Q 4475 -325 3775 -300 
Q 3075 -275 2600 -87 
Q 2125 100 1800 375 
Q 1475 625 1400 612 
Q 1325 600 1075 350 
Q 825 100 575 -275 
L 225 75 
Q 675 325 1250 725 
L 1250 2850 
L 1050 2850 
Q 725 2850 450 2775 
L 225 3000 
L 1225 3000 
L 1475 3250 
L 1825 2900 
L 1575 2750 
L 1575 700 
z
M 750 5000 
L 800 5075 
Q 1250 4825 1425 4662 
Q 1600 4500 1600 4312 
Q 1600 4125 1500 4050 
Q 1400 3975 1375 3975 
Q 1275 3975 1175 4275 
Q 1050 4650 750 5000 
z
" transform="scale(0.015625)"/>
       <path id="SimSun-4f4d" d="M 1250 -600 
Q 1275 150 1275 3100 
Q 750 2225 325 1775 
L 250 1825 
Q 725 2575 1112 3450 
Q 1500 4325 1700 5225 
L 2275 4925 
L 2050 4800 
Q 1650 3900 1475 3500 
L 1800 3275 
L 1600 3125 
Q 1600 125 1625 -400 
L 1250 -600 
z
M 3300 5125 
L 3375 5175 
Q 4100 4625 4112 4375 
Q 4125 4125 4000 4025 
Q 3875 3925 3850 3925 
Q 3725 3925 3700 4200 
Q 3625 4575 3300 5125 
z
M 2025 3725 
L 5050 3725 
L 5400 4075 
L 5900 3575 
L 2825 3575 
Q 2525 3575 2250 3500 
L 2025 3725 
z
M 2600 3000 
L 2675 3050 
Q 3300 2050 3400 1712 
Q 3500 1375 3500 1200 
Q 3500 950 3362 800 
Q 3225 650 3175 650 
Q 3100 650 3100 825 
Q 3075 1125 2975 1675 
Q 2875 2225 2600 3000 
z
M 4725 3325 
L 5325 3000 
Q 5100 2875 4875 2125 
Q 4650 1375 4175 -25 
L 5300 -25 
L 5650 325 
L 6150 -175 
L 2700 -175 
Q 2375 -175 2100 -250 
L 1875 -25 
L 4000 -25 
Q 4300 1000 4500 1962 
Q 4700 2925 4725 3325 
z
" transform="scale(0.015625)"/>
       <path id="SimSun-7f6e" d="M 1400 4750 
L 1400 3925 
L 2375 3925 
L 2375 4750 
L 1400 4750 
z
M 2725 4750 
L 2725 3925 
L 3700 3925 
L 3700 4750 
L 2725 4750 
z
M 4025 4750 
L 4025 3925 
L 5025 3925 
L 5025 4750 
L 4025 4750 
z
M 1025 5100 
L 1400 4925 
L 5000 4925 
L 5175 5150 
L 5550 4875 
L 5400 4725 
Q 5400 4400 5400 4162 
Q 5400 3925 5425 3675 
L 5025 3550 
L 5025 3750 
L 1400 3750 
L 1400 3625 
L 1025 3500 
Q 1050 4000 1050 4425 
Q 1050 4850 1025 5100 
z
M 1900 350 
L 1900 -200 
L 4450 -200 
L 4450 350 
L 1900 350 
z
M 675 3225 
L 2900 3225 
Q 2925 3500 2925 3750 
L 3500 3550 
L 3325 3450 
L 3250 3225 
L 4850 3225 
L 5200 3500 
L 5650 3050 
L 3225 3050 
Q 3150 2800 3075 2575 
L 4400 2575 
L 4575 2850 
L 5000 2550 
L 4800 2325 
L 4800 -200 
L 5300 -200 
L 5675 125 
L 6175 -375 
L 1125 -375 
Q 750 -375 450 -450 
L 200 -200 
L 1525 -200 
L 1525 2100 
Q 1525 2375 1500 2750 
L 1900 2575 
L 2800 2575 
L 2875 3050 
L 1575 3050 
Q 1225 3050 925 2975 
L 675 3225 
z
M 1900 2400 
L 1900 1900 
L 4450 1900 
L 4450 2400 
L 1900 2400 
z
M 1900 1725 
L 1900 1225 
L 4450 1225 
L 4450 1725 
L 1900 1725 
z
M 1900 1050 
L 1900 525 
L 4450 525 
L 4450 1050 
L 1900 1050 
z
" transform="scale(0.015625)"/>
       <path id="TimesNewRomanPSMT-2f" d="M 1794 4444 
L 259 -88 
L 9 -88 
L 1544 4444 
L 1794 4444 
z
" transform="scale(0.015625)"/>
       <path id="TimesNewRomanPSMT-6d" d="M 1050 2338 
Q 1363 2650 1419 2697 
Q 1559 2816 1721 2881 
Q 1884 2947 2044 2947 
Q 2313 2947 2506 2790 
Q 2700 2634 2766 2338 
Q 3088 2713 3309 2830 
Q 3531 2947 3766 2947 
Q 3994 2947 4170 2830 
Q 4347 2713 4450 2447 
Q 4519 2266 4519 1878 
L 4519 647 
Q 4519 378 4559 278 
Q 4591 209 4675 161 
Q 4759 113 4950 113 
L 4950 0 
L 3538 0 
L 3538 113 
L 3597 113 
Q 3781 113 3884 184 
Q 3956 234 3988 344 
Q 4000 397 4000 647 
L 4000 1878 
Q 4000 2228 3916 2372 
Q 3794 2572 3525 2572 
Q 3359 2572 3192 2489 
Q 3025 2406 2788 2181 
L 2781 2147 
L 2788 2013 
L 2788 647 
Q 2788 353 2820 281 
Q 2853 209 2943 161 
Q 3034 113 3253 113 
L 3253 0 
L 1806 0 
L 1806 113 
Q 2044 113 2133 169 
Q 2222 225 2256 338 
Q 2272 391 2272 647 
L 2272 1878 
Q 2272 2228 2169 2381 
Q 2031 2581 1784 2581 
Q 1616 2581 1450 2491 
Q 1191 2353 1050 2181 
L 1050 647 
Q 1050 366 1089 281 
Q 1128 197 1204 155 
Q 1281 113 1516 113 
L 1516 0 
L 100 0 
L 100 113 
Q 297 113 375 155 
Q 453 197 493 289 
Q 534 381 534 647 
L 534 1741 
Q 534 2213 506 2350 
Q 484 2453 437 2492 
Q 391 2531 309 2531 
Q 222 2531 100 2484 
L 53 2597 
L 916 2947 
L 1050 2947 
L 1050 2338 
z
" transform="scale(0.015625)"/>
      </defs>
      <use xlink:href="#SimSun-6cbf"/>
      <use xlink:href="#SimSun-822a" transform="translate(100 0)"/>
      <use xlink:href="#SimSun-8ff9" transform="translate(200 0)"/>
      <use xlink:href="#SimSun-4f4d" transform="translate(300 0)"/>
      <use xlink:href="#SimSun-7f6e" transform="translate(400 0)"/>
      <use xlink:href="#TimesNewRomanPSMT-2f" transform="translate(500 0)"/>
      <use xlink:href="#TimesNewRomanPSMT-6d" transform="translate(527.783203 0)"/>
     </g>
    </g>
   </g>
   <g id="matplotlib.axis_2">
    <g id="ytick_1">
     <g id="line2d_4">
      <defs>
       <path id="mc6dccfb4cf" d="M 0 0 
L 2.5 0 
" style="stroke: #000000; stroke-width: 0.6"/>
      </defs>
      <g>
       <use xlink:href="#mc6dccfb4cf" x="32.035" y="132.04795" style="stroke: #000000; stroke-width: 0.6"/>
      </g>
     </g>
     <g id="text_5">
      <!-- 0 -->
      <g transform="translate(24.785 134.651856) scale(0.075 -0.075)">
       <use xlink:href="#TimesNewRomanPSMT-30"/>
      </g>
     </g>
    </g>
    <g id="ytick_2">
     <g id="line2d_5">
      <g>
       <use xlink:href="#mc6dccfb4cf" x="32.035" y="113.339288" style="stroke: #000000; stroke-width: 0.6"/>
      </g>
     </g>
     <g id="text_6">
      <!-- 200 -->
      <g transform="translate(17.285 115.943195) scale(0.075 -0.075)">
       <defs>
        <path id="TimesNewRomanPSMT-32" d="M 2934 816 
L 2638 0 
L 138 0 
L 138 116 
Q 1241 1122 1691 1759 
Q 2141 2397 2141 2925 
Q 2141 3328 1894 3587 
Q 1647 3847 1303 3847 
Q 991 3847 742 3664 
Q 494 3481 375 3128 
L 259 3128 
Q 338 3706 661 4015 
Q 984 4325 1469 4325 
Q 1984 4325 2329 3994 
Q 2675 3663 2675 3213 
Q 2675 2891 2525 2569 
Q 2294 2063 1775 1497 
Q 997 647 803 472 
L 1909 472 
Q 2247 472 2383 497 
Q 2519 522 2628 598 
Q 2738 675 2819 816 
L 2934 816 
z
" transform="scale(0.015625)"/>
       </defs>
       <use xlink:href="#TimesNewRomanPSMT-32"/>
       <use xlink:href="#TimesNewRomanPSMT-30" transform="translate(50 0)"/>
       <use xlink:href="#TimesNewRomanPSMT-30" transform="translate(100 0)"/>
      </g>
     </g>
    </g>
    <g id="ytick_3">
     <g id="line2d_6">
      <g>
       <use xlink:href="#mc6dccfb4cf" x="32.035" y="94.630627" style="stroke: #000000; stroke-width: 0.6"/>
      </g>
     </g>
     <g id="text_7">
      <!-- 400 -->
      <g transform="translate(17.285 97.234533) scale(0.075 -0.075)">
       <defs>
        <path id="TimesNewRomanPSMT-34" d="M 2978 1563 
L 2978 1119 
L 2409 1119 
L 2409 0 
L 1894 0 
L 1894 1119 
L 100 1119 
L 100 1519 
L 2066 4325 
L 2409 4325 
L 2409 1563 
L 2978 1563 
z
M 1894 1563 
L 1894 3666 
L 406 1563 
L 1894 1563 
z
" transform="scale(0.015625)"/>
       </defs>
       <use xlink:href="#TimesNewRomanPSMT-34"/>
       <use xlink:href="#TimesNewRomanPSMT-30" transform="translate(50 0)"/>
       <use xlink:href="#TimesNewRomanPSMT-30" transform="translate(100 0)"/>
      </g>
     </g>
    </g>
    <g id="ytick_4">
     <g id="line2d_7">
      <g>
       <use xlink:href="#mc6dccfb4cf" x="32.035" y="75.921965" style="stroke: #000000; stroke-width: 0.6"/>
      </g>
     </g>
     <g id="text_8">
      <!-- 600 -->
      <g transform="translate(17.285 78.525872) scale(0.075 -0.075)">
       <defs>
        <path id="TimesNewRomanPSMT-36" d="M 2869 4325 
L 2869 4209 
Q 2456 4169 2195 4045 
Q 1934 3922 1679 3669 
Q 1425 3416 1258 3105 
Q 1091 2794 978 2366 
Q 1428 2675 1881 2675 
Q 2316 2675 2634 2325 
Q 2953 1975 2953 1425 
Q 2953 894 2631 456 
Q 2244 -75 1606 -75 
Q 1172 -75 869 213 
Q 275 772 275 1663 
Q 275 2231 503 2743 
Q 731 3256 1154 3653 
Q 1578 4050 1965 4187 
Q 2353 4325 2688 4325 
L 2869 4325 
z
M 925 2138 
Q 869 1716 869 1456 
Q 869 1156 980 804 
Q 1091 453 1309 247 
Q 1469 100 1697 100 
Q 1969 100 2183 356 
Q 2397 613 2397 1088 
Q 2397 1622 2184 2012 
Q 1972 2403 1581 2403 
Q 1463 2403 1327 2353 
Q 1191 2303 925 2138 
z
" transform="scale(0.015625)"/>
       </defs>
       <use xlink:href="#TimesNewRomanPSMT-36"/>
       <use xlink:href="#TimesNewRomanPSMT-30" transform="translate(50 0)"/>
       <use xlink:href="#TimesNewRomanPSMT-30" transform="translate(100 0)"/>
      </g>
     </g>
    </g>
    <g id="ytick_5">
     <g id="line2d_8">
      <g>
       <use xlink:href="#mc6dccfb4cf" x="32.035" y="57.213304" style="stroke: #000000; stroke-width: 0.6"/>
      </g>
     </g>
     <g id="text_9">
      <!-- 800 -->
      <g transform="translate(17.285 59.81721) scale(0.075 -0.075)">
       <defs>
        <path id="TimesNewRomanPSMT-38" d="M 1228 2134 
Q 725 2547 579 2797 
Q 434 3047 434 3316 
Q 434 3728 753 4026 
Q 1072 4325 1600 4325 
Q 2113 4325 2425 4047 
Q 2738 3769 2738 3413 
Q 2738 3175 2569 2928 
Q 2400 2681 1866 2347 
Q 2416 1922 2594 1678 
Q 2831 1359 2831 1006 
Q 2831 559 2490 242 
Q 2150 -75 1597 -75 
Q 994 -75 656 303 
Q 388 606 388 966 
Q 388 1247 577 1523 
Q 766 1800 1228 2134 
z
M 1719 2469 
Q 2094 2806 2194 3001 
Q 2294 3197 2294 3444 
Q 2294 3772 2109 3958 
Q 1925 4144 1606 4144 
Q 1288 4144 1088 3959 
Q 888 3775 888 3528 
Q 888 3366 970 3203 
Q 1053 3041 1206 2894 
L 1719 2469 
z
M 1375 2016 
Q 1116 1797 991 1539 
Q 866 1281 866 981 
Q 866 578 1086 336 
Q 1306 94 1647 94 
Q 1984 94 2187 284 
Q 2391 475 2391 747 
Q 2391 972 2272 1150 
Q 2050 1481 1375 2016 
z
" transform="scale(0.015625)"/>
       </defs>
       <use xlink:href="#TimesNewRomanPSMT-38"/>
       <use xlink:href="#TimesNewRomanPSMT-30" transform="translate(50 0)"/>
       <use xlink:href="#TimesNewRomanPSMT-30" transform="translate(100 0)"/>
      </g>
     </g>
    </g>
    <g id="ytick_6">
     <g id="line2d_9">
      <g>
       <use xlink:href="#mc6dccfb4cf" x="32.035" y="38.504643" style="stroke: #000000; stroke-width: 0.6"/>
      </g>
     </g>
     <g id="text_10">
      <!-- 1000 -->
      <g transform="translate(13.535 41.108549) scale(0.075 -0.075)">
       <defs>
        <path id="TimesNewRomanPSMT-31" d="M 750 3822 
L 1781 4325 
L 1884 4325 
L 1884 747 
Q 1884 391 1914 303 
Q 1944 216 2037 169 
Q 2131 122 2419 116 
L 2419 0 
L 825 0 
L 825 116 
Q 1125 122 1212 167 
Q 1300 213 1334 289 
Q 1369 366 1369 747 
L 1369 3034 
Q 1369 3497 1338 3628 
Q 1316 3728 1258 3775 
Q 1200 3822 1119 3822 
Q 1003 3822 797 3725 
L 750 3822 
z
" transform="scale(0.015625)"/>
       </defs>
       <use xlink:href="#TimesNewRomanPSMT-31"/>
       <use xlink:href="#TimesNewRomanPSMT-30" transform="translate(50 0)"/>
       <use xlink:href="#TimesNewRomanPSMT-30" transform="translate(100 0)"/>
       <use xlink:href="#TimesNewRomanPSMT-30" transform="translate(150 0)"/>
      </g>
     </g>
    </g>
    <g id="ytick_7">
     <g id="line2d_10">
      <g>
       <use xlink:href="#mc6dccfb4cf" x="32.035" y="19.795981" style="stroke: #000000; stroke-width: 0.6"/>
      </g>
     </g>
     <g id="text_11">
      <!-- 1200 -->
      <g transform="translate(13.535 22.399887) scale(0.075 -0.075)">
       <use xlink:href="#TimesNewRomanPSMT-31"/>
       <use xlink:href="#TimesNewRomanPSMT-32" transform="translate(50 0)"/>
       <use xlink:href="#TimesNewRomanPSMT-30" transform="translate(100 0)"/>
       <use xlink:href="#TimesNewRomanPSMT-30" transform="translate(150 0)"/>
      </g>
     </g>
    </g>
    <g id="text_12">
     <!-- 与航迹的垂直距离/m -->
     <g transform="translate(7.82375 116.821631) rotate(-90) scale(0.08 -0.08)">
      <defs>
       <path id="SimSun-4e0e" d="M 375 1250 
L 3750 1250 
L 4075 1575 
L 4550 1100 
L 1175 1100 
Q 875 1100 600 1025 
L 375 1250 
z
M 1700 2600 
Q 1800 4125 1812 4450 
Q 1825 4775 1825 5200 
L 2400 4925 
L 2200 4775 
L 2150 3850 
L 5075 3850 
L 5400 4175 
L 5875 3700 
L 2150 3700 
L 2075 2525 
L 5025 2525 
L 5225 2825 
L 5675 2500 
L 5450 2300 
Q 5400 1375 5300 687 
Q 5200 0 4937 -237 
Q 4675 -475 4250 -575 
Q 4275 -250 3425 0 
L 3450 125 
Q 4000 0 4400 0 
Q 4800 0 4925 737 
Q 5050 1475 5075 2375 
L 2100 2375 
L 1900 2125 
L 1500 2425 
L 1700 2600 
z
" transform="scale(0.015625)"/>
       <path id="SimSun-7684" d="M 1125 3775 
L 1125 2175 
L 2425 2175 
L 2425 3775 
L 1125 3775 
z
M 1125 2025 
L 1125 275 
L 2425 275 
L 2425 2025 
L 1125 2025 
z
M 2750 3625 
Q 2750 700 2775 -200 
L 2425 -400 
L 2425 125 
L 1125 125 
L 1125 -300 
L 775 -500 
Q 800 675 800 1837 
Q 800 3000 775 4150 
L 1150 3925 
L 1400 3925 
Q 1650 4775 1675 5225 
L 2225 4925 
Q 1975 4800 1550 3925 
L 2375 3925 
L 2625 4175 
L 3000 3800 
L 2750 3625 
z
M 3975 5200 
L 4525 4875 
Q 4325 4750 3900 3850 
L 5250 3850 
L 5525 4125 
L 5900 3750 
L 5675 3575 
Q 5625 650 5537 262 
Q 5450 -125 5287 -275 
Q 5125 -425 4775 -550 
Q 4650 -150 3950 50 
L 3950 175 
Q 4575 50 4850 50 
Q 5125 50 5187 475 
Q 5250 900 5300 3700 
L 3850 3700 
Q 3400 2975 2900 2475 
L 2825 2525 
Q 3350 3325 3600 3950 
Q 3850 4575 3975 5200 
z
M 3525 2750 
Q 4125 2300 4225 2087 
Q 4325 1875 4325 1775 
Q 4325 1600 4225 1475 
Q 4125 1350 4075 1350 
Q 3975 1350 3925 1700 
Q 3825 2200 3475 2675 
L 3525 2750 
z
" transform="scale(0.015625)"/>
       <path id="SimSun-5782" d="M 2175 3425 
L 2175 2300 
L 3075 2300 
L 3075 3425 
L 2175 3425 
z
M 3425 3425 
L 3425 2300 
L 4300 2300 
L 4300 3425 
L 3425 3425 
z
M 2175 2150 
L 2175 950 
L 3075 950 
L 3075 2150 
L 2175 2150 
z
M 3425 2150 
L 3425 950 
L 4300 950 
L 4300 2150 
L 3425 2150 
z
M 5125 4600 
Q 4625 4600 3425 4500 
L 3425 3575 
L 4975 3575 
L 5325 3925 
L 5825 3425 
L 4650 3425 
L 4650 2300 
L 5150 2300 
L 5525 2675 
L 6050 2150 
L 4650 2150 
L 4650 950 
L 5050 950 
L 5400 1300 
L 5900 800 
L 3425 800 
L 3425 -225 
L 4900 -225 
L 5275 150 
L 5800 -375 
L 1650 -375 
Q 1325 -375 1050 -450 
L 825 -225 
L 3075 -225 
L 3075 800 
L 925 800 
L 625 750 
L 425 950 
L 1825 950 
L 1825 2150 
L 775 2150 
L 475 2100 
L 275 2300 
L 1825 2300 
L 1825 3425 
L 1150 3425 
L 825 3375 
L 625 3575 
L 3075 3575 
L 3075 4450 
Q 2175 4400 1175 4350 
L 1175 4475 
Q 3900 4700 4675 5125 
L 5125 4600 
z
" transform="scale(0.015625)"/>
       <path id="SimSun-76f4" d="M 1900 3425 
L 1900 2725 
L 4500 2725 
L 4500 3425 
L 1900 3425 
z
M 1900 2575 
L 1900 1825 
L 4500 1825 
L 4500 2575 
L 1900 2575 
z
M 1900 1675 
L 1900 900 
L 4500 900 
L 4500 1675 
L 1900 1675 
z
M 1900 750 
L 1900 -50 
L 4500 -50 
L 4500 750 
L 1900 750 
z
M 625 4375 
L 3000 4375 
Q 3050 4875 3075 5225 
L 3650 4925 
L 3425 4800 
L 3350 4375 
L 4975 4375 
L 5325 4750 
L 5775 4225 
L 3325 4225 
L 3200 3575 
L 4475 3575 
L 4650 3850 
L 5050 3550 
L 4850 3375 
L 4850 -50 
L 5225 -50 
L 5625 325 
L 6100 -200 
L 1100 -200 
Q 775 -175 500 -250 
L 300 -50 
L 1550 -50 
Q 1550 3150 1525 3825 
L 1900 3575 
L 2875 3575 
L 2975 4225 
L 1450 4225 
Q 1125 4225 850 4150 
L 625 4375 
z
" transform="scale(0.015625)"/>
       <path id="SimSun-8ddd" d="M 1075 4550 
L 1075 3175 
L 2275 3175 
L 2275 4550 
L 1075 4550 
z
M 1850 550 
L 2900 875 
L 2925 775 
Q 2150 450 1500 200 
Q 825 -75 500 -325 
L 225 100 
L 675 225 
Q 675 1900 650 2425 
L 1175 2125 
L 975 2000 
L 975 300 
L 1550 475 
L 1550 3025 
L 1075 3025 
L 1075 2825 
L 750 2700 
Q 775 3250 775 3812 
Q 775 4375 750 4900 
L 1075 4700 
L 2250 4700 
L 2475 4925 
L 2775 4625 
L 2575 4475 
Q 2575 3350 2600 3000 
L 2275 2825 
L 2275 3025 
L 1850 3025 
L 1850 2050 
L 2175 2050 
L 2425 2300 
L 2800 1900 
L 1850 1900 
L 1850 550 
z
M 5450 3025 
Q 5450 1650 5475 1350 
L 5125 1200 
L 5125 1575 
L 3500 1575 
L 3500 25 
L 5375 25 
L 5675 325 
L 6100 -125 
L 3550 -125 
L 3325 -350 
L 2950 -25 
L 3175 125 
L 3175 3975 
Q 3175 4350 3150 4900 
L 3500 4675 
L 5225 4675 
L 5500 4950 
L 5900 4525 
L 3500 4525 
L 3500 3300 
L 5100 3300 
L 5325 3525 
L 5650 3200 
L 5450 3025 
z
M 3500 3150 
L 3500 1725 
L 5125 1725 
L 5125 3150 
L 3500 3150 
z
" transform="scale(0.015625)"/>
       <path id="SimSun-79bb" d="M 2625 5200 
L 2650 5275 
Q 3225 5150 3375 5012 
Q 3525 4875 3525 4775 
Q 3525 4650 3375 4475 
L 5200 4475 
L 5550 4800 
L 6025 4325 
L 1175 4325 
Q 850 4325 575 4250 
L 350 4475 
L 3200 4475 
Q 3125 4700 3000 4862 
Q 2875 5025 2625 5200 
z
M 2200 725 
L 4025 750 
Q 3775 1075 3475 1300 
L 3525 1375 
Q 4275 1050 4425 875 
Q 4575 700 4575 550 
Q 4575 450 4525 325 
Q 4475 200 4425 200 
Q 4375 200 4350 275 
Q 4250 425 4125 625 
Q 3000 550 2600 487 
Q 2200 425 2000 275 
L 1750 775 
Q 1950 775 2187 987 
Q 2425 1200 2725 1675 
L 1225 1675 
Q 1225 -200 1250 -475 
L 875 -625 
Q 900 200 900 737 
Q 900 1275 875 2050 
L 1225 1825 
L 2800 1825 
Q 3000 2150 3100 2400 
L 1775 2400 
L 1625 2200 
L 1275 2475 
L 1425 2625 
Q 1425 3250 1400 4125 
L 1950 3900 
L 1750 3700 
L 1750 2550 
L 4600 2550 
Q 4600 3100 4575 4100 
L 5150 3850 
L 4925 3675 
Q 4950 2500 4950 2275 
L 4600 2125 
L 4600 2400 
L 3175 2400 
L 3575 2175 
Q 3275 2000 3150 1825 
L 5125 1825 
L 5300 2075 
L 5700 1750 
L 5500 1600 
L 5500 125 
Q 5550 -425 4950 -600 
Q 4950 -275 4175 -100 
L 4175 0 
Q 4900 -50 5037 -50 
Q 5175 -50 5175 75 
L 5175 1675 
L 3075 1675 
Q 2625 1100 2200 725 
z
M 3275 3650 
Q 3625 3925 3825 4200 
L 4150 3850 
Q 3925 3800 3500 3525 
Q 4025 3300 4125 3175 
Q 4225 3050 4225 2900 
Q 4225 2825 4187 2725 
Q 4150 2625 4125 2625 
Q 4050 2625 3950 2800 
Q 3750 3050 3300 3325 
Q 2675 2950 1975 2700 
L 1950 2775 
Q 2600 3100 3100 3475 
Q 2725 3700 2150 3975 
L 2175 4050 
Q 2750 3875 3275 3650 
z
" transform="scale(0.015625)"/>
      </defs>
      <use xlink:href="#SimSun-4e0e"/>
      <use xlink:href="#SimSun-822a" transform="translate(100 0)"/>
      <use xlink:href="#SimSun-8ff9" transform="translate(200 0)"/>
      <use xlink:href="#SimSun-7684" transform="translate(300 0)"/>
      <use xlink:href="#SimSun-5782" transform="translate(400 0)"/>
      <use xlink:href="#SimSun-76f4" transform="translate(500 0)"/>
      <use xlink:href="#SimSun-8ddd" transform="translate(600 0)"/>
      <use xlink:href="#SimSun-79bb" transform="translate(700 0)"/>
      <use xlink:href="#TimesNewRomanPSMT-2f" transform="translate(800 0)"/>
      <use xlink:href="#TimesNewRomanPSMT-6d" transform="translate(827.783203 0)"/>
     </g>
    </g>
   </g>
   <g id="line2d_11">
    <path d="M 36.442056 38.504643 
L 181.874887 38.504643 
" clip-path="url(#p4b4b609b74)" style="fill: none; stroke: #999999; stroke-width: 1.2; stroke-linecap: square"/>
   </g>
   <g id="line2d_12">
    <path d="M 66.410033 38.504643 
L 115.769055 132.04795 
" clip-path="url(#p4b4b609b74)" style="fill: none; stroke: #4477aa; stroke-linecap: square"/>
   </g>
   <g id="line2d_13">
    <path d="M 115.769055 38.504643 
L 115.769055 132.04795 
" clip-path="url(#p4b4b609b74)" style="fill: none; stroke-dasharray: 0.8,1.2; stroke-dashoffset: 0; stroke: #808080; stroke-width: 0.8"/>
   </g>
   <g id="line2d_14">
    <defs>
     <path id="mdf5f5edc50" d="M 0 3 
C 0.795609 3 1.55874 2.683901 2.12132 2.12132 
C 2.683901 1.55874 3 0.795609 3 0 
C 3 -0.795609 2.683901 -1.55874 2.12132 -2.12132 
C 1.55874 -2.683901 0.795609 -3 0 -3 
C -0.795609 -3 -1.55874 -2.683901 -2.12132 -2.12132 
C -2.683901 -1.55874 -3 -0.795609 -3 0 
C -3 0.795609 -2.683901 1.55874 -2.12132 2.12132 
C -1.55874 2.683901 -0.795609 3 0 3 
z
" style="stroke: #c5653f"/>
    </defs>
    <g clip-path="url(#p4b4b609b74)">
     <use xlink:href="#mdf5f5edc50" x="66.410033" y="38.504643" style="fill: #c5653f; stroke: #c5653f"/>
    </g>
   </g>
   <g id="line2d_15">
    <defs>
     <path id="m0285ef35db" d="M 0 2.5 
C 0.663008 2.5 1.29895 2.236584 1.767767 1.767767 
C 2.236584 1.29895 2.5 0.663008 2.5 0 
C 2.5 -0.663008 2.236584 -1.29895 1.767767 -1.767767 
C 1.29895 -2.236584 0.663008 -2.5 0 -2.5 
C -0.663008 -2.5 -1.29895 -2.236584 -1.767767 -1.767767 
C -2.236584 -1.29895 -2.5 -0.663008 -2.5 0 
C -2.5 0.663008 -2.236584 1.29895 -1.767767 1.767767 
C -1.29895 2.236584 -0.663008 2.5 0 2.5 
z
" style="stroke: #666666"/>
    </defs>
    <g clip-path="url(#p4b4b609b74)">
     <use xlink:href="#m0285ef35db" x="115.769055" y="38.504643" style="fill: #ffffff; stroke: #666666"/>
    </g>
   </g>
   <g id="line2d_16">
    <defs>
     <path id="m0c374ba29c" d="M 0 -3.5 
L -3.5 3.5 
L 3.5 3.5 
z
" style="stroke: #222222; stroke-linejoin: miter"/>
    </defs>
    <g clip-path="url(#p4b4b609b74)">
     <use xlink:href="#m0c374ba29c" x="115.769055" y="132.04795" style="fill: #222222; stroke: #222222; stroke-linejoin: miter"/>
    </g>
   </g>
   <g id="patch_3">
    <path d="M 32.035 146.079446 
L 32.035 15.118816 
" style="fill: none; stroke: #000000; stroke-width: 0.6; stroke-linejoin: miter; stroke-linecap: square"/>
   </g>
   <g id="patch_4">
    <path d="M 32.035 146.079446 
L 186.281943 146.079446 
" style="fill: none; stroke: #000000; stroke-width: 0.6; stroke-linejoin: miter; stroke-linecap: square"/>
   </g>
   <g id="patch_5">
    <path d="M 70.172922 38.504643 
Q 80.953912 38.504643 90.616867 38.504643 
" style="fill: none; stroke: #222222; stroke-linecap: round"/>
    <path d="M 87.416867 36.904643 
L 90.616867 38.504643 
L 87.416867 40.104643 
z
" style="fill: #222222; stroke: #222222; stroke-linecap: round"/>
   </g>
   <g id="text_13">
    <!-- 运动声源 -->
    <g style="fill: #c5653f" transform="translate(36.307455 26.344013) scale(0.08 -0.08)">
     <defs>
      <path id="SimSun-8fd0" d="M 2450 4475 
L 4625 4475 
L 4975 4800 
L 5425 4325 
L 3125 4325 
Q 2950 4325 2675 4250 
L 2450 4475 
z
M 2300 1225 
Q 2550 1275 2775 1550 
Q 3000 1825 3250 2250 
Q 3500 2675 3600 3025 
L 2700 3025 
Q 2500 3025 2225 2950 
L 2000 3175 
L 5100 3175 
L 5475 3550 
L 5950 3025 
L 3675 3025 
L 4125 2700 
Q 3925 2700 3550 2175 
Q 3150 1625 2700 1175 
L 4925 1275 
Q 4750 1650 4375 2075 
L 4450 2125 
Q 4975 1800 5262 1512 
Q 5550 1225 5512 987 
Q 5475 750 5400 687 
Q 5325 625 5275 625 
Q 5200 625 5150 775 
Q 5075 975 5000 1150 
Q 3700 1025 3262 925 
Q 2825 825 2600 675 
L 2300 1225 
z
M 825 4925 
L 900 4975 
Q 1400 4725 1575 4550 
Q 1750 4375 1725 4187 
Q 1700 4000 1600 3912 
Q 1500 3825 1450 3825 
Q 1350 3825 1300 4075 
Q 1225 4425 825 4925 
z
M 1600 825 
Q 1825 575 2225 350 
Q 2625 125 3387 87 
Q 4150 50 4837 75 
Q 5525 100 6150 200 
L 6150 100 
Q 5625 -50 5625 -325 
Q 4500 -325 3762 -300 
Q 3025 -275 2562 -87 
Q 2100 100 1825 375 
Q 1550 625 1425 650 
Q 1300 675 1012 375 
Q 725 75 600 -100 
L 250 250 
Q 650 575 1275 825 
L 1275 2850 
L 1100 2850 
Q 775 2850 500 2775 
L 275 3000 
L 1225 3000 
L 1400 3275 
L 1825 2950 
L 1600 2775 
L 1600 825 
z
" transform="scale(0.015625)"/>
      <path id="SimSun-52a8" d="M 5950 3500 
L 5750 3325 
Q 5725 675 5587 137 
Q 5450 -400 4850 -575 
Q 4825 -300 4075 25 
L 4100 150 
Q 4625 25 4925 25 
Q 5075 25 5162 87 
Q 5250 150 5312 737 
Q 5375 1325 5425 3425 
L 4375 3425 
Q 4350 2475 4162 1725 
Q 3975 975 3487 400 
Q 3000 -175 2200 -625 
L 2125 -550 
Q 2925 0 3312 562 
Q 3700 1125 3862 1825 
Q 4025 2525 4050 3425 
L 3600 3425 
L 3300 3375 
L 3100 3575 
L 4050 3575 
Q 4050 4625 4025 5175 
L 4550 4925 
L 4375 4750 
L 4375 3575 
L 5375 3575 
L 5575 3800 
L 5950 3500 
z
M 475 4325 
L 2275 4325 
L 2575 4625 
L 3025 4175 
L 1200 4175 
Q 925 4175 700 4100 
L 475 4325 
z
M 275 3050 
L 2625 3050 
L 2925 3350 
L 3375 2900 
L 1700 2900 
L 2100 2600 
Q 1850 2500 1450 1875 
Q 1025 1250 675 875 
L 2650 1100 
Q 2400 1600 2125 2025 
L 2200 2075 
Q 3075 1275 3125 987 
Q 3175 700 3062 587 
Q 2950 475 2925 475 
Q 2850 475 2825 600 
Q 2775 775 2700 975 
Q 875 650 600 350 
L 325 850 
Q 600 925 1025 1687 
Q 1450 2450 1550 2900 
L 750 2900 
L 475 2850 
L 275 3050 
z
" transform="scale(0.015625)"/>
      <path id="SimSun-58f0" d="M 525 4275 
L 3100 4275 
Q 3100 4900 3075 5225 
L 3650 4975 
L 3450 4775 
L 3450 4275 
L 5125 4275 
L 5475 4625 
L 5975 4125 
L 3450 4125 
L 3450 3425 
L 4625 3425 
L 4950 3750 
L 5425 3275 
L 1975 3275 
Q 1650 3275 1375 3200 
L 1150 3425 
L 3100 3425 
L 3100 4125 
L 1350 4125 
Q 1025 4125 750 4050 
L 525 4275 
z
M 5325 1975 
Q 5325 1725 5350 1350 
L 4975 1250 
L 4975 1475 
L 1650 1475 
Q 1575 200 450 -625 
L 375 -550 
Q 975 75 1137 612 
Q 1300 1150 1300 1775 
Q 1300 2400 1275 2975 
L 1650 2750 
L 4950 2750 
L 5125 3000 
L 5500 2700 
L 5325 2550 
L 5325 1975 
z
M 1650 2600 
L 1650 1625 
L 3100 1625 
L 3100 2600 
L 1650 2600 
z
M 3450 2600 
L 3450 1625 
L 4975 1625 
L 4975 2600 
L 3450 2600 
z
" transform="scale(0.015625)"/>
      <path id="SimSun-6e90" d="M 3575 3525 
L 3575 2800 
L 5225 2800 
L 5225 3525 
L 3575 3525 
z
M 3575 2650 
L 3575 1900 
L 5225 1900 
L 5225 2650 
L 3575 2650 
z
M 3375 1325 
L 3825 975 
Q 3550 850 3250 500 
Q 2925 150 2275 -325 
L 2225 -250 
Q 3125 625 3375 1325 
z
M 4800 1150 
L 4850 1225 
Q 5675 700 5812 525 
Q 5950 350 5950 200 
Q 5950 75 5875 -87 
Q 5800 -250 5750 -250 
Q 5675 -250 5550 50 
Q 5375 475 4800 1150 
z
M 3225 1475 
Q 3250 2125 3250 2700 
Q 3250 3275 3225 3875 
L 3575 3675 
L 3925 3675 
Q 4175 4250 4225 4550 
L 2700 4550 
Q 2700 3525 2687 2575 
Q 2675 1625 2325 875 
Q 1975 125 1275 -550 
L 1225 -475 
Q 1850 300 2100 1112 
Q 2350 1925 2350 3112 
Q 2350 4300 2325 4950 
L 2700 4700 
L 5300 4700 
L 5650 5050 
L 6125 4550 
L 4350 4550 
L 4750 4325 
Q 4550 4250 4437 4137 
Q 4325 4025 4075 3675 
L 5200 3675 
L 5375 3925 
L 5750 3600 
L 5550 3425 
Q 5550 1875 5575 1675 
L 5225 1500 
L 5225 1750 
L 4575 1750 
L 4575 100 
Q 4600 -400 4050 -550 
Q 4025 -200 3450 -75 
L 3450 25 
Q 3775 0 4000 -12 
Q 4225 -25 4225 175 
L 4225 1750 
L 3575 1750 
L 3575 1625 
L 3225 1475 
z
M 2150 4250 
Q 1375 1525 1312 1200 
Q 1250 875 1237 425 
Q 1225 -25 1250 -200 
Q 1250 -300 1150 -300 
Q 1075 -300 912 -237 
Q 750 -175 750 25 
Q 750 200 800 375 
Q 875 625 875 775 
Q 875 925 762 1025 
Q 650 1125 275 1225 
L 275 1325 
Q 725 1275 837 1287 
Q 950 1300 1087 1512 
Q 1225 1725 2050 4275 
L 2150 4250 
z
M 275 3575 
Q 1150 3175 1150 2925 
Q 1150 2675 1050 2562 
Q 950 2450 900 2450 
Q 825 2450 750 2700 
Q 625 3025 225 3500 
L 275 3575 
z
M 825 5025 
Q 1550 4725 1625 4512 
Q 1700 4300 1587 4137 
Q 1475 3975 1425 3975 
Q 1325 3975 1275 4175 
Q 1150 4500 775 4950 
L 825 5025 
z
" transform="scale(0.015625)"/>
     </defs>
     <use xlink:href="#SimSun-8fd0"/>
     <use xlink:href="#SimSun-52a8" transform="translate(100 0)"/>
     <use xlink:href="#SimSun-58f0" transform="translate(200 0)"/>
     <use xlink:href="#SimSun-6e90" transform="translate(300 0)"/>
    </g>
   </g>
   <g id="text_14">
    <!-- v = 5 m/s -->
    <g transform="translate(74.291722 26.344013) scale(0.08 -0.08)">
     <defs>
      <path id="TimesNewRomanPSMT-76" d="M 53 2863 
L 1400 2863 
L 1400 2747 
L 1313 2747 
Q 1191 2747 1127 2687 
Q 1063 2628 1063 2528 
Q 1063 2419 1128 2269 
L 1794 688 
L 2463 2328 
Q 2534 2503 2534 2594 
Q 2534 2638 2509 2666 
Q 2475 2713 2422 2730 
Q 2369 2747 2206 2747 
L 2206 2863 
L 3141 2863 
L 3141 2747 
Q 2978 2734 2916 2681 
Q 2806 2588 2719 2369 
L 1703 -88 
L 1575 -88 
L 553 2328 
Q 484 2497 421 2570 
Q 359 2644 263 2694 
Q 209 2722 53 2747 
L 53 2863 
z
" transform="scale(0.015625)"/>
      <path id="TimesNewRomanPSMT-20" transform="scale(0.015625)"/>
      <path id="TimesNewRomanPSMT-3d" d="M 116 2759 
L 3488 2759 
L 3488 2503 
L 116 2503 
L 116 2759 
z
M 116 1741 
L 3488 1741 
L 3488 1484 
L 116 1484 
L 116 1741 
z
" transform="scale(0.015625)"/>
      <path id="TimesNewRomanPSMT-73" d="M 2050 2947 
L 2050 1972 
L 1947 1972 
Q 1828 2431 1642 2597 
Q 1456 2763 1169 2763 
Q 950 2763 815 2647 
Q 681 2531 681 2391 
Q 681 2216 781 2091 
Q 878 1963 1175 1819 
L 1631 1597 
Q 2266 1288 2266 781 
Q 2266 391 1970 151 
Q 1675 -88 1309 -88 
Q 1047 -88 709 6 
Q 606 38 541 38 
Q 469 38 428 -44 
L 325 -44 
L 325 978 
L 428 978 
Q 516 541 762 319 
Q 1009 97 1316 97 
Q 1531 97 1667 223 
Q 1803 350 1803 528 
Q 1803 744 1651 891 
Q 1500 1038 1047 1263 
Q 594 1488 453 1669 
Q 313 1847 313 2119 
Q 313 2472 555 2709 
Q 797 2947 1181 2947 
Q 1350 2947 1591 2875 
Q 1750 2828 1803 2828 
Q 1853 2828 1881 2850 
Q 1909 2872 1947 2947 
L 2050 2947 
z
" transform="scale(0.015625)"/>
     </defs>
     <use xlink:href="#TimesNewRomanPSMT-76"/>
     <use xlink:href="#TimesNewRomanPSMT-20" transform="translate(50 0)"/>
     <use xlink:href="#TimesNewRomanPSMT-3d" transform="translate(75 0)"/>
     <use xlink:href="#TimesNewRomanPSMT-20" transform="translate(131.396484 0)"/>
     <use xlink:href="#TimesNewRomanPSMT-35" transform="translate(156.396484 0)"/>
     <use xlink:href="#TimesNewRomanPSMT-20" transform="translate(206.396484 0)"/>
     <use xlink:href="#TimesNewRomanPSMT-6d" transform="translate(231.396484 0)"/>
     <use xlink:href="#TimesNewRomanPSMT-2f" transform="translate(309.179688 0)"/>
     <use xlink:href="#TimesNewRomanPSMT-73" transform="translate(336.962891 0)"/>
    </g>
   </g>
   <g id="text_15">
    <!-- 最近通过点 -->
    <g transform="translate(118.413288 31.021178) scale(0.08 -0.08)">
     <defs>
      <path id="SimSun-6700" d="M 1550 2725 
L 1550 2200 
L 2725 2200 
L 2725 2725 
L 1550 2725 
z
M 1550 2050 
L 1550 1475 
L 2725 1475 
L 2725 2050 
L 1550 2050 
z
M 1550 1325 
L 1550 525 
L 2725 725 
L 2725 1325 
L 1550 1325 
z
M 3800 2125 
Q 3900 1775 4075 1425 
Q 4250 1075 4450 850 
Q 4650 1150 4812 1475 
Q 4975 1800 5100 2125 
L 3800 2125 
z
M 325 2875 
L 5100 2875 
L 5500 3275 
L 6050 2725 
L 3050 2725 
L 3050 800 
L 3775 950 
L 3800 850 
L 3050 625 
L 3050 -450 
L 2725 -650 
L 2725 525 
Q 1325 175 1025 62 
Q 725 -50 675 -150 
L 375 325 
Q 725 375 1200 450 
L 1200 2725 
L 850 2725 
L 525 2675 
L 325 2875 
z
M 3150 2275 
L 5075 2275 
L 5275 2525 
L 5675 2175 
L 5450 2050 
Q 5075 1200 4650 625 
Q 5050 250 5350 100 
Q 5650 -50 6075 -75 
L 6075 -175 
Q 5675 -225 5575 -475 
Q 5300 -350 5025 -137 
Q 4750 75 4450 400 
Q 3950 -100 3125 -575 
L 3050 -500 
Q 3775 0 4275 600 
Q 4050 950 3912 1312 
Q 3775 1675 3675 2125 
L 3350 2075 
L 3150 2275 
z
M 1900 4800 
L 1900 4250 
L 4600 4250 
L 4600 4800 
L 1900 4800 
z
M 1900 4100 
L 1900 3550 
L 4600 3550 
L 4600 4100 
L 1900 4100 
z
M 1525 5150 
L 1900 4950 
L 4550 4950 
L 4725 5225 
L 5150 4925 
L 4950 4750 
Q 4950 3525 4975 3275 
L 4600 3100 
L 4600 3400 
L 1900 3400 
L 1900 3200 
L 1525 3075 
Q 1550 3550 1550 4112 
Q 1550 4675 1525 5150 
z
" transform="scale(0.015625)"/>
      <path id="SimSun-8fd1" d="M 1975 600 
Q 2800 1575 2725 3125 
Q 2725 4250 2700 4725 
L 3075 4475 
Q 3600 4550 4262 4712 
Q 4925 4875 5150 5075 
L 5500 4600 
L 5250 4625 
Q 3875 4400 3050 4350 
L 3050 3150 
L 5275 3150 
L 5575 3450 
L 6000 3000 
L 4700 3000 
Q 4700 1125 4725 475 
L 4350 300 
Q 4375 950 4375 3000 
L 3050 3000 
Q 3125 1400 2025 525 
L 1975 600 
z
M 825 5000 
L 875 5050 
Q 1325 4775 1525 4587 
Q 1725 4400 1700 4237 
Q 1675 4075 1587 4000 
Q 1500 3925 1450 3925 
Q 1350 3925 1275 4225 
Q 1175 4600 825 5000 
z
M 1575 775 
Q 1800 550 2200 312 
Q 2600 75 3362 50 
Q 4125 25 4812 50 
Q 5500 75 6150 125 
L 6150 25 
Q 5625 -100 5625 -350 
Q 4475 -350 3725 -325 
Q 2975 -300 2562 -137 
Q 2150 25 1850 325 
Q 1525 625 1450 662 
Q 1375 700 1125 425 
Q 875 150 600 -275 
L 250 50 
Q 750 400 1250 775 
L 1250 2925 
L 1050 2925 
Q 725 2925 450 2850 
L 225 3075 
L 1175 3075 
L 1450 3350 
L 1800 3000 
L 1575 2850 
L 1575 775 
z
" transform="scale(0.015625)"/>
      <path id="SimSun-901a" d="M 2625 3575 
L 2625 2825 
L 3725 2825 
L 3725 3575 
L 2625 3575 
z
M 4050 3575 
L 4050 2825 
L 5225 2825 
L 5225 3575 
L 4050 3575 
z
M 2625 2675 
L 2625 1925 
L 3725 1925 
L 3725 2675 
L 2625 2675 
z
M 4050 2675 
L 4050 1925 
L 5225 1925 
L 5225 2675 
L 4050 2675 
z
M 4425 825 
Q 4825 800 5025 800 
Q 5225 800 5225 1000 
L 5225 1775 
L 4050 1775 
L 4050 650 
L 3725 500 
L 3725 1775 
L 2625 1775 
L 2625 575 
L 2275 425 
Q 2300 1100 2300 2250 
Q 2300 3400 2275 3975 
L 2700 3725 
L 3775 3725 
Q 3725 4125 3200 4425 
L 3250 4500 
Q 3675 4425 4075 4175 
L 4825 4775 
L 3150 4775 
Q 2800 4775 2525 4700 
L 2300 4925 
L 4850 4925 
L 5075 5150 
L 5525 4675 
Q 5125 4700 4150 4100 
Q 4175 4050 4175 3950 
Q 4175 3825 4050 3725 
L 5175 3725 
L 5350 3975 
L 5725 3700 
L 5550 3525 
L 5550 875 
Q 5575 450 5075 275 
Q 5050 625 4425 725 
L 4425 825 
z
M 725 4875 
L 775 4925 
Q 1125 4750 1337 4575 
Q 1550 4400 1550 4225 
Q 1550 4050 1450 3937 
Q 1350 3825 1300 3825 
Q 1200 3825 1150 4050 
Q 1075 4375 725 4875 
z
M 1575 800 
Q 1825 500 2237 287 
Q 2650 75 3725 37 
Q 4800 0 6150 150 
L 6150 50 
Q 5650 -75 5675 -400 
Q 4500 -400 3762 -350 
Q 3025 -300 2562 -137 
Q 2100 25 1825 325 
Q 1525 625 1400 612 
Q 1275 600 1012 312 
Q 750 25 625 -225 
L 250 100 
Q 625 475 1250 750 
L 1250 2850 
L 1075 2850 
Q 750 2850 475 2775 
L 250 3000 
L 1225 3000 
L 1375 3250 
L 1775 2950 
L 1575 2775 
L 1575 800 
z
" transform="scale(0.015625)"/>
      <path id="SimSun-8fc7" d="M 2500 3200 
L 2550 3275 
Q 3075 2925 3287 2687 
Q 3500 2450 3487 2275 
Q 3475 2100 3387 2012 
Q 3300 1925 3250 1925 
Q 3150 1925 3050 2250 
Q 2900 2700 2500 3200 
z
M 4400 3775 
Q 4400 4875 4375 5250 
L 4950 4975 
L 4750 4775 
L 4750 3775 
L 5300 3775 
L 5625 4100 
L 6075 3625 
L 4750 3625 
L 4750 925 
Q 4750 650 4637 500 
Q 4525 350 4275 250 
Q 4125 650 3425 825 
L 3425 925 
Q 4100 850 4250 850 
Q 4400 850 4400 1050 
L 4400 3625 
L 2675 3625 
Q 2475 3625 2200 3550 
L 1975 3775 
L 4400 3775 
z
M 800 4900 
L 850 4975 
Q 1300 4750 1500 4562 
Q 1700 4375 1687 4187 
Q 1675 4000 1587 3925 
Q 1500 3850 1450 3850 
Q 1350 3850 1250 4150 
Q 1125 4550 800 4900 
z
M 1650 700 
Q 1925 450 2287 275 
Q 2650 100 3250 62 
Q 3850 25 4325 25 
Q 4675 25 5112 50 
Q 5550 75 6150 125 
L 6150 25 
Q 5650 -75 5650 -375 
Q 4525 -350 3787 -312 
Q 3050 -275 2625 -137 
Q 2200 0 1900 275 
Q 1600 550 1487 550 
Q 1375 550 1125 275 
Q 875 0 675 -350 
L 325 0 
Q 775 325 1300 700 
L 1300 2750 
L 1100 2750 
Q 775 2750 500 2675 
L 275 2900 
L 1225 2900 
L 1500 3175 
L 1850 2825 
L 1650 2650 
L 1650 700 
z
" transform="scale(0.015625)"/>
      <path id="SimSun-70b9" d="M 1875 2900 
L 1875 1525 
L 4625 1525 
L 4625 2900 
L 1875 2900 
z
M 1475 925 
Q 1500 1450 1500 2050 
Q 1500 2650 1475 3250 
L 1875 3050 
L 2950 3050 
Q 2950 4725 2925 5225 
L 3500 5000 
L 3300 4800 
L 3300 4200 
L 4925 4200 
L 5250 4525 
L 5700 4050 
L 3300 4050 
L 3300 3050 
L 4575 3050 
L 4825 3300 
L 5200 2925 
L 4975 2750 
Q 4975 1575 5000 1150 
L 4625 1000 
L 4625 1375 
L 1875 1375 
L 1875 1075 
L 1475 925 
z
M 1350 800 
L 1450 800 
Q 1300 -175 1137 -337 
Q 975 -500 850 -500 
Q 775 -500 675 -437 
Q 575 -375 575 -300 
Q 575 -225 700 -125 
Q 925 50 1037 200 
Q 1150 350 1350 800 
z
M 2225 675 
L 2275 750 
Q 2800 350 2862 187 
Q 2925 25 2925 -50 
Q 2925 -225 2812 -337 
Q 2700 -450 2675 -450 
Q 2575 -450 2550 -200 
Q 2500 175 2225 675 
z
M 3550 700 
L 3600 775 
Q 4075 425 4187 225 
Q 4300 25 4300 -50 
Q 4300 -175 4187 -300 
Q 4075 -425 4050 -425 
Q 3950 -425 3900 -125 
Q 3825 300 3550 700 
z
M 4900 775 
L 4950 850 
Q 5450 500 5637 250 
Q 5825 0 5825 -125 
Q 5825 -250 5725 -375 
Q 5625 -500 5600 -500 
Q 5500 -500 5425 -200 
Q 5300 225 4900 775 
z
" transform="scale(0.015625)"/>
     </defs>
     <use xlink:href="#SimSun-6700"/>
     <use xlink:href="#SimSun-8fd1" transform="translate(100 0)"/>
     <use xlink:href="#SimSun-901a" transform="translate(200 0)"/>
     <use xlink:href="#SimSun-8fc7" transform="translate(300 0)"/>
     <use xlink:href="#SimSun-70b9" transform="translate(400 0)"/>
    </g>
   </g>
   <g id="text_16">
    <!-- d = 1000 m -->
    <g transform="translate(119.294699 85.276296) scale(0.08 -0.08)">
     <defs>
      <path id="TimesNewRomanPSMT-64" d="M 2222 322 
Q 2013 103 1813 7 
Q 1613 -88 1381 -88 
Q 913 -88 563 304 
Q 213 697 213 1313 
Q 213 1928 600 2439 
Q 988 2950 1597 2950 
Q 1975 2950 2222 2709 
L 2222 3238 
Q 2222 3728 2198 3840 
Q 2175 3953 2125 3993 
Q 2075 4034 2000 4034 
Q 1919 4034 1784 3984 
L 1744 4094 
L 2597 4444 
L 2738 4444 
L 2738 1134 
Q 2738 631 2761 520 
Q 2784 409 2836 365 
Q 2888 322 2956 322 
Q 3041 322 3181 375 
L 3216 266 
L 2366 -88 
L 2222 -88 
L 2222 322 
z
M 2222 541 
L 2222 2016 
Q 2203 2228 2109 2403 
Q 2016 2578 1861 2667 
Q 1706 2756 1559 2756 
Q 1284 2756 1069 2509 
Q 784 2184 784 1559 
Q 784 928 1059 592 
Q 1334 256 1672 256 
Q 1956 256 2222 541 
z
" transform="scale(0.015625)"/>
     </defs>
     <use xlink:href="#TimesNewRomanPSMT-64"/>
     <use xlink:href="#TimesNewRomanPSMT-20" transform="translate(50 0)"/>
     <use xlink:href="#TimesNewRomanPSMT-3d" transform="translate(75 0)"/>
     <use xlink:href="#TimesNewRomanPSMT-20" transform="translate(131.396484 0)"/>
     <use xlink:href="#TimesNewRomanPSMT-31" transform="translate(156.396484 0)"/>
     <use xlink:href="#TimesNewRomanPSMT-30" transform="translate(206.396484 0)"/>
     <use xlink:href="#TimesNewRomanPSMT-30" transform="translate(256.396484 0)"/>
     <use xlink:href="#TimesNewRomanPSMT-30" transform="translate(306.396484 0)"/>
     <use xlink:href="#TimesNewRomanPSMT-20" transform="translate(356.396484 0)"/>
     <use xlink:href="#TimesNewRomanPSMT-6d" transform="translate(381.396484 0)"/>
    </g>
   </g>
   <g id="text_17">
    <!-- R(τ) -->
    <g style="fill: #4477aa" transform="translate(73.604988 89.953461) scale(0.08 -0.08)">
     <defs>
      <path id="TimesNewRomanPS-ItalicMT-52" d="M 2659 0 
L 1981 2059 
Q 1744 2056 1494 2106 
L 1128 825 
Q 1056 575 1056 403 
Q 1056 272 1147 197 
Q 1216 141 1522 116 
L 1494 0 
L -147 0 
L -113 116 
Q 119 125 200 163 
Q 328 216 388 306 
Q 488 453 597 825 
L 1338 3384 
Q 1413 3641 1413 3781 
Q 1413 3925 1295 4025 
Q 1178 4125 959 4122 
L 997 4238 
L 2378 4238 
Q 3072 4238 3378 3975 
Q 3684 3713 3684 3284 
Q 3684 2875 3370 2536 
Q 3056 2197 2509 2106 
L 2922 866 
Q 3072 409 3222 271 
Q 3372 134 3706 116 
L 3672 0 
L 2659 0 
z
M 1547 2284 
Q 1747 2256 1903 2256 
Q 2441 2256 2753 2554 
Q 3066 2853 3066 3297 
Q 3066 3644 2870 3828 
Q 2675 4013 2284 4013 
Q 2184 4013 2047 3988 
L 1547 2284 
z
" transform="scale(0.015625)"/>
      <path id="TimesNewRomanPS-ItalicMT-28" d="M 1203 -1319 
L 1097 -1369 
Q 725 -659 563 -116 
Q 438 309 438 741 
Q 438 1747 903 2544 
Q 1475 3519 2756 4444 
L 2831 4334 
Q 2253 3906 1888 3375 
Q 1431 2713 1140 1775 
Q 850 838 850 69 
Q 850 -519 1203 -1319 
z
" transform="scale(0.015625)"/>
      <path id="TimesNewRomanPS-ItalicMT-3c4" d="M 272 1959 
L 159 1959 
Q 244 2219 383 2406 
Q 522 2594 709 2673 
Q 897 2753 1241 2753 
L 2494 2753 
L 2363 2313 
L 1597 2313 
L 1209 1144 
Q 1097 797 1097 597 
Q 1097 303 1372 303 
Q 1628 303 1794 716 
L 1919 716 
Q 1669 -75 1134 -75 
Q 934 -75 790 54 
Q 647 184 647 475 
Q 647 728 878 1406 
L 1184 2313 
Q 803 2313 606 2264 
Q 409 2216 272 1959 
z
" transform="scale(0.015625)"/>
      <path id="TimesNewRomanPS-ItalicMT-29" d="M 931 4384 
L 1038 4444 
Q 1409 3738 1569 3194 
Q 1697 2769 1697 2338 
Q 1697 1328 1231 534 
Q 656 -444 -622 -1369 
L -697 -1272 
Q -119 -841 247 -313 
Q 703 350 993 1289 
Q 1284 2228 1284 2997 
Q 1284 3584 931 4384 
z
" transform="scale(0.015625)"/>
     </defs>
     <use xlink:href="#TimesNewRomanPS-ItalicMT-52"/>
     <use xlink:href="#TimesNewRomanPS-ItalicMT-28" transform="translate(61.083984 0)"/>
     <use xlink:href="#TimesNewRomanPS-ItalicMT-3c4" transform="translate(94.384766 0)"/>
     <use xlink:href="#TimesNewRomanPS-ItalicMT-29" transform="translate(130.175781 0)"/>
    </g>
   </g>
   <g id="text_18">
    <!-- 水听器 -->
    <g transform="translate(121.057521 137.734682) scale(0.08 -0.08)">
     <defs>
      <path id="SimSun-6c34" d="M 2950 5200 
L 3600 4925 
L 3350 4725 
Q 3325 4150 3450 3750 
Q 3575 3350 3850 2775 
Q 4825 3575 5175 4150 
L 5600 3700 
Q 5350 3675 4975 3400 
Q 4575 3125 3900 2650 
Q 4875 775 6100 375 
L 6100 275 
Q 5625 250 5525 -25 
Q 4000 1100 3350 3625 
L 3350 125 
Q 3375 -500 2750 -650 
Q 2775 -300 1975 -100 
L 1975 0 
Q 2550 -50 2762 -50 
Q 2975 -50 2975 250 
L 2975 4275 
Q 2975 4750 2950 5200 
z
M 375 -150 
L 325 -75 
Q 1575 1175 2050 3125 
L 1275 3125 
Q 950 3125 675 3050 
L 450 3275 
L 2025 3275 
L 2250 3575 
L 2700 3175 
L 2450 3050 
Q 1825 825 375 -150 
z
" transform="scale(0.015625)"/>
      <path id="SimSun-542c" d="M 4350 -575 
Q 4400 275 4400 600 
L 4400 2850 
L 3350 2850 
Q 3350 1500 2925 687 
Q 2500 -125 1775 -575 
L 1725 -500 
Q 2425 175 2700 962 
Q 2975 1750 2987 2787 
Q 3000 3825 2975 4825 
L 3350 4550 
Q 3775 4600 4350 4750 
Q 4925 4900 5275 5125 
L 5650 4650 
Q 5300 4650 4587 4562 
Q 3875 4475 3350 4400 
Q 3350 3775 3350 3000 
L 5225 3000 
L 5575 3350 
L 5975 2850 
L 4750 2850 
L 4750 425 
Q 4750 25 4775 -375 
L 4350 -575 
z
M 600 4775 
L 975 4525 
L 1900 4525 
L 2100 4800 
L 2500 4475 
L 2300 4300 
L 2300 2125 
Q 2300 1725 2325 1400 
L 1950 1225 
L 1950 1750 
L 975 1750 
L 975 1075 
L 600 900 
Q 625 1775 625 2862 
Q 625 3950 600 4775 
z
M 975 4375 
L 975 1900 
L 1950 1900 
L 1950 4375 
L 975 4375 
z
" transform="scale(0.015625)"/>
      <path id="SimSun-5668" d="M 1475 4625 
L 1475 3650 
L 2475 3650 
L 2475 4625 
L 1475 4625 
z
M 1125 3075 
Q 1150 3575 1150 4062 
Q 1150 4550 1125 5000 
L 1475 4775 
L 2450 4775 
L 2625 5000 
L 3025 4675 
L 2800 4525 
Q 2800 3625 2825 3350 
L 2475 3200 
L 2475 3500 
L 1475 3500 
L 1475 3250 
L 1125 3075 
z
M 5250 1200 
Q 5250 150 5275 -225 
L 4900 -375 
L 4900 25 
L 3775 25 
L 3775 -350 
L 3425 -475 
Q 3450 50 3450 562 
Q 3450 1075 3425 1550 
L 3775 1375 
L 4825 1375 
L 4875 1425 
Q 4025 1900 3600 2525 
L 2850 2525 
Q 2200 1750 1425 1375 
L 2475 1375 
L 2650 1600 
L 3025 1300 
L 2850 1150 
Q 2850 100 2875 -225 
L 2525 -350 
L 2525 25 
L 1550 25 
L 1550 -300 
L 1200 -425 
Q 1225 0 1225 475 
Q 1225 950 1225 1275 
Q 725 1100 275 1000 
L 250 1075 
Q 950 1325 1475 1662 
Q 2000 2000 2450 2525 
L 1250 2525 
Q 925 2525 650 2450 
L 425 2675 
L 2525 2675 
Q 2750 3025 2925 3400 
L 3400 3075 
Q 3150 2975 2925 2675 
L 4500 2675 
Q 4375 3025 4000 3275 
L 4050 3350 
Q 4525 3225 4650 3125 
Q 4775 3025 4775 2950 
Q 4775 2825 4650 2675 
L 5150 2675 
L 5500 3025 
L 6000 2525 
L 3750 2525 
Q 4175 2125 4737 1850 
Q 5300 1575 6125 1550 
L 6125 1450 
Q 5725 1400 5650 1100 
L 5275 1225 
L 5250 1200 
z
M 1550 1225 
L 1550 175 
L 2525 175 
L 2525 1225 
L 1550 1225 
z
M 3775 1225 
L 3775 175 
L 4900 175 
L 4900 1225 
L 3775 1225 
z
M 3925 4625 
L 3925 3650 
L 4900 3650 
L 4900 4625 
L 3925 4625 
z
M 3575 3200 
Q 3600 3650 3600 4112 
Q 3600 4575 3575 5000 
L 3925 4775 
L 4875 4775 
L 5050 5000 
L 5425 4700 
L 5225 4525 
Q 5225 3700 5250 3375 
L 4900 3250 
L 4900 3500 
L 3925 3500 
L 3925 3325 
L 3575 3200 
z
" transform="scale(0.015625)"/>
     </defs>
     <use xlink:href="#SimSun-6c34"/>
     <use xlink:href="#SimSun-542c" transform="translate(100 0)"/>
     <use xlink:href="#SimSun-5668" transform="translate(200 0)"/>
    </g>
   </g>
   <g id="text_19">
    <!-- (a) -->
    <g transform="translate(13.525367 8.062187) scale(0.085 -0.085)">
     <defs>
      <path id="TimesNewRomanPSMT-28" d="M 1988 -1253 
L 1988 -1369 
Q 1516 -1131 1200 -813 
Q 750 -359 506 256 
Q 263 872 263 1534 
Q 263 2503 741 3301 
Q 1219 4100 1988 4444 
L 1988 4313 
Q 1603 4100 1356 3731 
Q 1109 3363 987 2797 
Q 866 2231 866 1616 
Q 866 947 969 400 
Q 1050 -31 1165 -292 
Q 1281 -553 1476 -793 
Q 1672 -1034 1988 -1253 
z
" transform="scale(0.015625)"/>
      <path id="TimesNewRomanPSMT-61" d="M 1822 413 
Q 1381 72 1269 19 
Q 1100 -59 909 -59 
Q 613 -59 420 144 
Q 228 347 228 678 
Q 228 888 322 1041 
Q 450 1253 767 1440 
Q 1084 1628 1822 1897 
L 1822 2009 
Q 1822 2438 1686 2597 
Q 1550 2756 1291 2756 
Q 1094 2756 978 2650 
Q 859 2544 859 2406 
L 866 2225 
Q 866 2081 792 2003 
Q 719 1925 600 1925 
Q 484 1925 411 2006 
Q 338 2088 338 2228 
Q 338 2497 613 2722 
Q 888 2947 1384 2947 
Q 1766 2947 2009 2819 
Q 2194 2722 2281 2516 
Q 2338 2381 2338 1966 
L 2338 994 
Q 2338 584 2353 492 
Q 2369 400 2405 369 
Q 2441 338 2488 338 
Q 2538 338 2575 359 
Q 2641 400 2828 588 
L 2828 413 
Q 2478 -56 2159 -56 
Q 2006 -56 1915 50 
Q 1825 156 1822 413 
z
M 1822 616 
L 1822 1706 
Q 1350 1519 1213 1441 
Q 966 1303 859 1153 
Q 753 1003 753 825 
Q 753 600 887 451 
Q 1022 303 1197 303 
Q 1434 303 1822 616 
z
" transform="scale(0.015625)"/>
      <path id="TimesNewRomanPSMT-29" d="M 144 4313 
L 144 4444 
Q 619 4209 934 3891 
Q 1381 3434 1625 2820 
Q 1869 2206 1869 1541 
Q 1869 572 1392 -226 
Q 916 -1025 144 -1369 
L 144 -1253 
Q 528 -1038 776 -670 
Q 1025 -303 1145 264 
Q 1266 831 1266 1447 
Q 1266 2113 1163 2663 
Q 1084 3094 967 3353 
Q 850 3613 656 3853 
Q 463 4094 144 4313 
z
" transform="scale(0.015625)"/>
     </defs>
     <use xlink:href="#TimesNewRomanPSMT-28"/>
     <use xlink:href="#TimesNewRomanPSMT-61" transform="translate(33.300781 0)"/>
     <use xlink:href="#TimesNewRomanPSMT-29" transform="translate(77.685547 0)"/>
    </g>
   </g>
  </g>
  <g id="axes_2">
   <g id="patch_6">
    <path d="M 240.268372 146.079446 
L 394.515315 146.079446 
L 394.515315 15.118816 
L 240.268372 15.118816 
z
" style="fill: #ffffff"/>
   </g>
   <g id="matplotlib.axis_3">
    <g id="xtick_4">
     <g id="line2d_17">
      <g>
       <use xlink:href="#mdd86b97c97" x="240.268372" y="146.079446" style="stroke: #000000; stroke-width: 0.6"/>
      </g>
     </g>
     <g id="text_20">
      <!-- 0 -->
      <g transform="translate(238.393372 154.787258) scale(0.075 -0.075)">
       <use xlink:href="#TimesNewRomanPSMT-30"/>
      </g>
     </g>
    </g>
    <g id="xtick_5">
     <g id="line2d_18">
      <g>
       <use xlink:href="#mdd86b97c97" x="265.976196" y="146.079446" style="stroke: #000000; stroke-width: 0.6"/>
      </g>
     </g>
     <g id="text_21">
      <!-- 50 -->
      <g transform="translate(262.226196 154.787258) scale(0.075 -0.075)">
       <use xlink:href="#TimesNewRomanPSMT-35"/>
       <use xlink:href="#TimesNewRomanPSMT-30" transform="translate(50 0)"/>
      </g>
     </g>
    </g>
    <g id="xtick_6">
     <g id="line2d_19">
      <g>
       <use xlink:href="#mdd86b97c97" x="291.68402" y="146.079446" style="stroke: #000000; stroke-width: 0.6"/>
      </g>
     </g>
     <g id="text_22">
      <!-- 100 -->
      <g transform="translate(286.05902 154.787258) scale(0.075 -0.075)">
       <use xlink:href="#TimesNewRomanPSMT-31"/>
       <use xlink:href="#TimesNewRomanPSMT-30" transform="translate(50 0)"/>
       <use xlink:href="#TimesNewRomanPSMT-30" transform="translate(100 0)"/>
      </g>
     </g>
    </g>
    <g id="xtick_7">
     <g id="line2d_20">
      <g>
       <use xlink:href="#mdd86b97c97" x="317.391844" y="146.079446" style="stroke: #000000; stroke-width: 0.6"/>
      </g>
     </g>
     <g id="text_23">
      <!-- 150 -->
      <g transform="translate(311.766844 154.787258) scale(0.075 -0.075)">
       <use xlink:href="#TimesNewRomanPSMT-31"/>
       <use xlink:href="#TimesNewRomanPSMT-35" transform="translate(50 0)"/>
       <use xlink:href="#TimesNewRomanPSMT-30" transform="translate(100 0)"/>
      </g>
     </g>
    </g>
    <g id="xtick_8">
     <g id="line2d_21">
      <g>
       <use xlink:href="#mdd86b97c97" x="343.099667" y="146.079446" style="stroke: #000000; stroke-width: 0.6"/>
      </g>
     </g>
     <g id="text_24">
      <!-- 200 -->
      <g transform="translate(337.474667 154.787258) scale(0.075 -0.075)">
       <use xlink:href="#TimesNewRomanPSMT-32"/>
       <use xlink:href="#TimesNewRomanPSMT-30" transform="translate(50 0)"/>
       <use xlink:href="#TimesNewRomanPSMT-30" transform="translate(100 0)"/>
      </g>
     </g>
    </g>
    <g id="xtick_9">
     <g id="line2d_22">
      <g>
       <use xlink:href="#mdd86b97c97" x="368.807491" y="146.079446" style="stroke: #000000; stroke-width: 0.6"/>
      </g>
     </g>
     <g id="text_25">
      <!-- 250 -->
      <g transform="translate(363.182491 154.787258) scale(0.075 -0.075)">
       <use xlink:href="#TimesNewRomanPSMT-32"/>
       <use xlink:href="#TimesNewRomanPSMT-35" transform="translate(50 0)"/>
       <use xlink:href="#TimesNewRomanPSMT-30" transform="translate(100 0)"/>
      </g>
     </g>
    </g>
    <g id="xtick_10">
     <g id="line2d_23">
      <g>
       <use xlink:href="#mdd86b97c97" x="394.515315" y="146.079446" style="stroke: #000000; stroke-width: 0.6"/>
      </g>
     </g>
     <g id="text_26">
      <!-- 300 -->
      <g transform="translate(388.890315 154.787258) scale(0.075 -0.075)">
       <defs>
        <path id="TimesNewRomanPSMT-33" d="M 325 3431 
Q 506 3859 782 4092 
Q 1059 4325 1472 4325 
Q 1981 4325 2253 3994 
Q 2459 3747 2459 3466 
Q 2459 3003 1878 2509 
Q 2269 2356 2469 2072 
Q 2669 1788 2669 1403 
Q 2669 853 2319 450 
Q 1863 -75 997 -75 
Q 569 -75 414 31 
Q 259 138 259 259 
Q 259 350 332 419 
Q 406 488 509 488 
Q 588 488 669 463 
Q 722 447 909 348 
Q 1097 250 1169 231 
Q 1284 197 1416 197 
Q 1734 197 1970 444 
Q 2206 691 2206 1028 
Q 2206 1275 2097 1509 
Q 2016 1684 1919 1775 
Q 1784 1900 1550 2001 
Q 1316 2103 1072 2103 
L 972 2103 
L 972 2197 
Q 1219 2228 1467 2375 
Q 1716 2522 1828 2728 
Q 1941 2934 1941 3181 
Q 1941 3503 1739 3701 
Q 1538 3900 1238 3900 
Q 753 3900 428 3381 
L 325 3431 
z
" transform="scale(0.015625)"/>
       </defs>
       <use xlink:href="#TimesNewRomanPSMT-33"/>
       <use xlink:href="#TimesNewRomanPSMT-30" transform="translate(50 0)"/>
       <use xlink:href="#TimesNewRomanPSMT-30" transform="translate(100 0)"/>
      </g>
     </g>
    </g>
    <g id="text_27">
     <!-- 接收时间/s -->
     <g transform="translate(298.723719 166.086555) scale(0.08 -0.08)">
      <defs>
       <path id="SimSun-63a5" d="M 2500 4275 
L 5150 4275 
L 5425 4550 
L 5850 4125 
L 3275 4125 
Q 2950 4125 2725 4050 
L 2500 4275 
z
M 3100 4025 
Q 3650 3650 3712 3525 
Q 3775 3400 3775 3350 
Q 3775 3250 3675 3137 
Q 3575 3025 3525 3025 
Q 3450 3025 3400 3250 
Q 3325 3550 3025 3975 
L 3100 4025 
z
M 3975 2450 
L 3625 1800 
L 5425 1800 
L 5725 2100 
L 6150 1650 
L 5100 1650 
Q 4725 850 4475 550 
Q 4975 375 5325 187 
Q 5675 0 5737 -137 
Q 5800 -275 5800 -375 
Q 5800 -450 5762 -512 
Q 5725 -575 5675 -575 
Q 5600 -575 5450 -425 
Q 5225 -175 4987 -25 
Q 4750 125 4300 325 
Q 3900 -25 3337 -275 
Q 2775 -525 1800 -600 
L 1800 -500 
Q 2325 -425 2887 -212 
Q 3450 0 3975 450 
Q 3400 675 2725 800 
Q 2975 1225 3225 1650 
L 2325 1650 
L 2100 1600 
L 1900 1800 
L 3275 1800 
Q 3525 2375 3675 2825 
L 2575 2825 
L 2350 2775 
L 2150 2975 
L 4250 2975 
Q 4350 3200 4462 3475 
Q 4575 3750 4675 4100 
L 5175 3750 
L 4950 3700 
Q 4600 3200 4400 2975 
L 5325 2975 
L 5625 3275 
L 6075 2825 
L 3725 2825 
L 4175 2550 
L 3975 2450 
z
M 3100 875 
Q 3650 775 4150 650 
Q 4475 1075 4700 1650 
L 3575 1650 
Q 3350 1275 3100 875 
z
M 3600 5225 
Q 4050 4975 4175 4850 
Q 4300 4725 4300 4650 
Q 4300 4550 4200 4425 
Q 4100 4300 4075 4300 
Q 4000 4300 3950 4500 
Q 3850 4800 3525 5175 
L 3600 5225 
z
M 1650 2400 
L 2350 2700 
L 2400 2625 
L 1650 2175 
L 1650 50 
Q 1650 -350 1150 -575 
Q 1200 -300 525 -25 
L 525 75 
Q 1075 -25 1200 -12 
Q 1325 0 1325 200 
L 1325 2000 
Q 650 1600 550 1450 
L 225 1875 
Q 675 2000 1325 2275 
L 1325 3675 
L 800 3675 
L 500 3625 
L 300 3825 
L 1325 3825 
Q 1325 4850 1300 5275 
L 1850 5000 
L 1650 4825 
L 1650 3825 
L 1975 3825 
L 2250 4100 
L 2675 3675 
L 1650 3675 
L 1650 2400 
z
" transform="scale(0.015625)"/>
       <path id="SimSun-6536" d="M 3325 3600 
Q 3575 2100 4200 1200 
Q 4600 1950 4850 3600 
L 3325 3600 
z
M 3400 5275 
L 4025 4975 
L 3775 4850 
Q 3575 4375 3325 3750 
L 5250 3750 
L 5575 4075 
L 6050 3600 
L 5225 3600 
Q 4975 2000 4425 900 
Q 5300 -25 6150 -75 
L 6150 -175 
Q 5750 -200 5575 -525 
Q 4750 -50 4200 650 
Q 3350 -175 2300 -600 
L 2250 -525 
Q 3225 -25 4000 900 
Q 3325 2100 3225 3550 
Q 2875 2725 2425 2100 
L 2350 2150 
Q 3050 3500 3400 5275 
z
M 575 1575 
L 575 3100 
Q 575 3600 550 4125 
L 1125 3850 
L 900 3675 
L 900 1425 
L 1750 1725 
Q 1750 4350 1725 5250 
L 2300 4975 
L 2075 4775 
L 2075 -450 
L 1725 -650 
Q 1750 375 1750 1600 
Q 975 1175 750 825 
L 475 1200 
Q 600 1325 575 1575 
z
" transform="scale(0.015625)"/>
       <path id="SimSun-65f6" d="M 4500 3600 
Q 4500 4575 4475 5225 
L 5100 4900 
L 4850 4725 
L 4850 3600 
L 5225 3600 
L 5550 3925 
L 6025 3450 
L 4850 3450 
L 4850 100 
Q 4850 -375 4300 -575 
Q 4275 -200 3475 -25 
L 3475 100 
Q 4150 0 4325 25 
Q 4500 50 4500 325 
L 4500 3450 
L 3200 3450 
Q 2875 3450 2600 3375 
L 2375 3600 
L 4500 3600 
z
M 2875 2825 
Q 3525 2375 3637 2200 
Q 3750 2025 3750 1925 
Q 3750 1800 3637 1637 
Q 3525 1475 3475 1475 
Q 3400 1475 3325 1775 
Q 3200 2225 2800 2750 
L 2875 2825 
z
M 925 4150 
L 925 2650 
L 1950 2650 
L 1950 4150 
L 925 4150 
z
M 925 2500 
L 925 900 
L 1950 900 
L 1950 2500 
L 925 2500 
z
M 2300 2000 
Q 2300 800 2325 450 
L 1950 250 
L 1950 750 
L 925 750 
L 925 225 
L 550 25 
Q 575 825 575 2425 
Q 575 4025 550 4500 
L 950 4300 
L 1900 4300 
L 2100 4550 
L 2500 4225 
L 2300 4050 
L 2300 2000 
z
" transform="scale(0.015625)"/>
       <path id="SimSun-95f4" d="M 2150 525 
Q 2175 1325 2175 2112 
Q 2175 2900 2150 3675 
L 2525 3450 
L 3750 3450 
L 4000 3700 
L 4325 3375 
L 4125 3200 
Q 4125 1550 4150 775 
L 3800 575 
L 3800 975 
L 2500 975 
L 2500 700 
L 2150 525 
z
M 2500 3300 
L 2500 2325 
L 3800 2325 
L 3800 3300 
L 2500 3300 
z
M 2500 2175 
L 2500 1125 
L 3800 1125 
L 3800 2175 
L 2500 2175 
z
M 1275 5200 
Q 1850 4825 1950 4675 
Q 2050 4525 2050 4425 
Q 2050 4275 1950 4137 
Q 1850 4000 1825 4000 
Q 1750 4000 1675 4275 
Q 1550 4650 1200 5125 
L 1275 5200 
z
M 1125 425 
Q 1125 25 1150 -375 
L 750 -525 
Q 775 -150 775 1950 
Q 775 4050 750 4425 
L 1350 4125 
L 1125 3975 
L 1125 425 
z
M 4225 125 
Q 5025 0 5125 37 
Q 5225 75 5225 250 
L 5225 4450 
L 3225 4450 
Q 2900 4450 2625 4375 
L 2400 4600 
L 5175 4600 
L 5425 4850 
L 5775 4500 
L 5575 4350 
L 5575 225 
Q 5575 -100 5462 -250 
Q 5350 -400 5000 -550 
Q 4800 -125 4225 25 
L 4225 125 
z
" transform="scale(0.015625)"/>
      </defs>
      <use xlink:href="#SimSun-63a5"/>
      <use xlink:href="#SimSun-6536" transform="translate(100 0)"/>
      <use xlink:href="#SimSun-65f6" transform="translate(200 0)"/>
      <use xlink:href="#SimSun-95f4" transform="translate(300 0)"/>
      <use xlink:href="#TimesNewRomanPSMT-2f" transform="translate(400 0)"/>
      <use xlink:href="#TimesNewRomanPSMT-73" transform="translate(427.783203 0)"/>
     </g>
    </g>
   </g>
   <g id="matplotlib.axis_4">
    <g id="ytick_8">
     <g id="line2d_24">
      <g>
       <use xlink:href="#mc6dccfb4cf" x="240.268372" y="140.300268" style="stroke: #000000; stroke-width: 0.6"/>
      </g>
     </g>
     <g id="text_28">
      <!-- 99.8 -->
      <g transform="translate(223.643372 142.904174) scale(0.075 -0.075)">
       <defs>
        <path id="TimesNewRomanPSMT-39" d="M 338 -88 
L 338 28 
Q 744 34 1094 217 
Q 1444 400 1770 856 
Q 2097 1313 2225 1859 
Q 1734 1544 1338 1544 
Q 891 1544 572 1889 
Q 253 2234 253 2806 
Q 253 3363 572 3797 
Q 956 4325 1575 4325 
Q 2097 4325 2469 3894 
Q 2925 3359 2925 2575 
Q 2925 1869 2578 1258 
Q 2231 647 1613 244 
Q 1109 -88 516 -88 
L 338 -88 
z
M 2275 2091 
Q 2331 2497 2331 2741 
Q 2331 3044 2228 3395 
Q 2125 3747 1936 3934 
Q 1747 4122 1506 4122 
Q 1228 4122 1018 3872 
Q 809 3622 809 3128 
Q 809 2469 1088 2097 
Q 1291 1828 1588 1828 
Q 1731 1828 1928 1897 
Q 2125 1966 2275 2091 
z
" transform="scale(0.015625)"/>
        <path id="TimesNewRomanPSMT-2e" d="M 800 606 
Q 947 606 1047 504 
Q 1147 403 1147 259 
Q 1147 116 1045 14 
Q 944 -88 800 -88 
Q 656 -88 554 14 
Q 453 116 453 259 
Q 453 406 554 506 
Q 656 606 800 606 
z
" transform="scale(0.015625)"/>
       </defs>
       <use xlink:href="#TimesNewRomanPSMT-39"/>
       <use xlink:href="#TimesNewRomanPSMT-39" transform="translate(50 0)"/>
       <use xlink:href="#TimesNewRomanPSMT-2e" transform="translate(100 0)"/>
       <use xlink:href="#TimesNewRomanPSMT-38" transform="translate(125 0)"/>
      </g>
     </g>
    </g>
    <g id="ytick_9">
     <g id="line2d_25">
      <g>
       <use xlink:href="#mc6dccfb4cf" x="240.268372" y="110.533562" style="stroke: #000000; stroke-width: 0.6"/>
      </g>
     </g>
     <g id="text_29">
      <!-- 99.9 -->
      <g transform="translate(223.643372 113.137468) scale(0.075 -0.075)">
       <use xlink:href="#TimesNewRomanPSMT-39"/>
       <use xlink:href="#TimesNewRomanPSMT-39" transform="translate(50 0)"/>
       <use xlink:href="#TimesNewRomanPSMT-2e" transform="translate(100 0)"/>
       <use xlink:href="#TimesNewRomanPSMT-39" transform="translate(125 0)"/>
      </g>
     </g>
    </g>
    <g id="ytick_10">
     <g id="line2d_26">
      <g>
       <use xlink:href="#mc6dccfb4cf" x="240.268372" y="80.766855" style="stroke: #000000; stroke-width: 0.6"/>
      </g>
     </g>
     <g id="text_30">
      <!-- 100.0 -->
      <g transform="translate(219.893372 83.370761) scale(0.075 -0.075)">
       <use xlink:href="#TimesNewRomanPSMT-31"/>
       <use xlink:href="#TimesNewRomanPSMT-30" transform="translate(50 0)"/>
       <use xlink:href="#TimesNewRomanPSMT-30" transform="translate(100 0)"/>
       <use xlink:href="#TimesNewRomanPSMT-2e" transform="translate(150 0)"/>
       <use xlink:href="#TimesNewRomanPSMT-30" transform="translate(175 0)"/>
      </g>
     </g>
    </g>
    <g id="ytick_11">
     <g id="line2d_27">
      <g>
       <use xlink:href="#mc6dccfb4cf" x="240.268372" y="51.000148" style="stroke: #000000; stroke-width: 0.6"/>
      </g>
     </g>
     <g id="text_31">
      <!-- 100.1 -->
      <g transform="translate(219.893372 53.604054) scale(0.075 -0.075)">
       <use xlink:href="#TimesNewRomanPSMT-31"/>
       <use xlink:href="#TimesNewRomanPSMT-30" transform="translate(50 0)"/>
       <use xlink:href="#TimesNewRomanPSMT-30" transform="translate(100 0)"/>
       <use xlink:href="#TimesNewRomanPSMT-2e" transform="translate(150 0)"/>
       <use xlink:href="#TimesNewRomanPSMT-31" transform="translate(175 0)"/>
      </g>
     </g>
    </g>
    <g id="ytick_12">
     <g id="line2d_28">
      <g>
       <use xlink:href="#mc6dccfb4cf" x="240.268372" y="21.233442" style="stroke: #000000; stroke-width: 0.6"/>
      </g>
     </g>
     <g id="text_32">
      <!-- 100.2 -->
      <g transform="translate(219.893372 23.837348) scale(0.075 -0.075)">
       <use xlink:href="#TimesNewRomanPSMT-31"/>
       <use xlink:href="#TimesNewRomanPSMT-30" transform="translate(50 0)"/>
       <use xlink:href="#TimesNewRomanPSMT-30" transform="translate(100 0)"/>
       <use xlink:href="#TimesNewRomanPSMT-2e" transform="translate(150 0)"/>
       <use xlink:href="#TimesNewRomanPSMT-32" transform="translate(175 0)"/>
      </g>
     </g>
    </g>
    <g id="text_33">
     <!-- 接收频率/Hz -->
     <g transform="translate(214.182122 102.374756) rotate(-90) scale(0.08 -0.08)">
      <defs>
       <path id="SimSun-9891" d="M 2800 2050 
L 3225 1675 
L 3000 1550 
Q 2400 625 1862 200 
Q 1325 -225 400 -575 
L 375 -500 
Q 1475 100 2000 712 
Q 2525 1325 2800 2050 
z
M 1800 2950 
L 1800 4375 
Q 1800 4700 1775 5250 
L 2300 5025 
L 2100 4850 
L 2100 4075 
L 2500 4075 
L 2775 4350 
L 3150 3925 
L 2100 3925 
L 2100 2950 
L 2575 2950 
L 2875 3225 
L 3275 2800 
L 1800 2800 
L 2250 2550 
L 2075 2425 
L 2075 1150 
L 1750 950 
L 1750 2800 
L 1150 2800 
Q 825 2800 550 2725 
L 325 2950 
L 1000 2950 
L 1000 3900 
Q 1000 4200 975 4500 
L 1500 4275 
L 1300 4100 
L 1300 2950 
L 1800 2950 
z
M 1100 2325 
L 1550 2025 
Q 1375 1975 1100 1500 
Q 800 1000 325 575 
L 275 650 
Q 825 1400 1100 2325 
z
M 3375 800 
Q 3400 1450 3400 2312 
Q 3400 3175 3375 3925 
L 3725 3725 
L 4200 3725 
Q 4300 4425 4325 4700 
L 3775 4700 
Q 3450 4700 3175 4625 
L 2950 4850 
L 5400 4850 
L 5725 5150 
L 6150 4700 
L 4800 4700 
Q 4625 4500 4325 3725 
L 5425 3725 
L 5625 3950 
L 6000 3650 
L 5800 3500 
L 5800 1975 
Q 5800 1550 5825 1100 
L 5475 900 
L 5475 3575 
L 3725 3575 
L 3725 1025 
L 3375 800 
z
M 5000 2875 
L 4775 2700 
Q 4775 1500 4612 987 
Q 4450 475 3987 100 
Q 3525 -275 2575 -575 
L 2550 -500 
Q 3550 -50 3937 400 
Q 4325 850 4387 1587 
Q 4450 2325 4425 3150 
L 5000 2875 
z
M 4725 875 
Q 5700 425 5862 250 
Q 6025 75 6025 -100 
Q 6025 -225 5975 -362 
Q 5925 -500 5875 -500 
Q 5825 -500 5775 -400 
Q 5650 -175 5437 87 
Q 5225 350 4675 800 
L 4725 875 
z
" transform="scale(0.015625)"/>
       <path id="SimSun-7387" d="M 875 3725 
L 925 3800 
Q 1375 3650 1550 3525 
Q 1725 3400 1725 3250 
Q 1725 3175 1662 3025 
Q 1600 2875 1550 2875 
Q 1500 2875 1425 3050 
Q 1275 3325 875 3725 
z
M 550 1850 
Q 875 1925 2000 2575 
L 2050 2500 
Q 1675 2225 1337 1937 
Q 1000 1650 875 1425 
L 550 1850 
z
M 5200 3450 
Q 4800 3150 4275 2800 
L 4225 2875 
Q 4775 3400 5050 3925 
L 5450 3525 
L 5200 3450 
z
M 4325 2500 
L 4350 2575 
Q 5225 2350 5375 2212 
Q 5525 2075 5525 1900 
Q 5525 1775 5487 1662 
Q 5450 1550 5400 1550 
Q 5325 1550 5200 1800 
Q 4975 2150 4325 2500 
z
M 3150 3900 
Q 2500 3300 2300 3150 
Q 2800 3150 3400 3175 
Q 3700 3500 3850 3825 
L 4250 3450 
Q 4050 3400 3450 2825 
Q 2850 2250 2475 1950 
Q 3150 1975 3850 2000 
Q 3750 2175 3550 2450 
L 3600 2500 
Q 4050 2250 4200 2100 
Q 4350 1950 4350 1850 
Q 4350 1775 4250 1625 
Q 4150 1475 4100 1475 
Q 4075 1475 4050 1550 
Q 4000 1700 3900 1900 
Q 3650 1875 3075 1800 
L 3500 1550 
L 3325 1425 
L 3325 975 
L 5325 975 
L 5650 1300 
L 6100 825 
L 3325 825 
Q 3325 -275 3350 -525 
L 2975 -650 
Q 3000 0 3000 825 
L 1125 825 
Q 800 825 525 750 
L 300 975 
L 3000 975 
L 3000 1775 
Q 2450 1700 2200 1525 
L 1950 1950 
Q 2275 1950 2675 2350 
Q 3075 2750 3325 3050 
Q 2400 2950 2150 2775 
L 1950 3175 
Q 2150 3150 2475 3575 
Q 2800 4000 2900 4225 
L 1450 4225 
Q 1125 4225 850 4150 
L 625 4375 
L 3100 4375 
Q 3050 4800 2675 5200 
L 2725 5250 
Q 3225 5050 3337 4912 
Q 3450 4775 3450 4700 
Q 3450 4550 3250 4375 
L 5025 4375 
L 5350 4675 
L 5775 4225 
L 3050 4225 
L 3375 3950 
L 3150 3900 
z
" transform="scale(0.015625)"/>
       <path id="TimesNewRomanPSMT-48" d="M 1316 2272 
L 3284 2272 
L 3284 3484 
Q 3284 3809 3244 3913 
Q 3213 3991 3113 4047 
Q 2978 4122 2828 4122 
L 2678 4122 
L 2678 4238 
L 4491 4238 
L 4491 4122 
L 4341 4122 
Q 4191 4122 4056 4050 
Q 3956 4000 3920 3898 
Q 3884 3797 3884 3484 
L 3884 750 
Q 3884 428 3925 325 
Q 3956 247 4053 191 
Q 4191 116 4341 116 
L 4491 116 
L 4491 0 
L 2678 0 
L 2678 116 
L 2828 116 
Q 3088 116 3206 269 
Q 3284 369 3284 750 
L 3284 2041 
L 1316 2041 
L 1316 750 
Q 1316 428 1356 325 
Q 1388 247 1488 191 
Q 1622 116 1772 116 
L 1925 116 
L 1925 0 
L 109 0 
L 109 116 
L 259 116 
Q 522 116 641 269 
Q 716 369 716 750 
L 716 3484 
Q 716 3809 675 3913 
Q 644 3991 547 4047 
Q 409 4122 259 4122 
L 109 4122 
L 109 4238 
L 1925 4238 
L 1925 4122 
L 1772 4122 
Q 1622 4122 1488 4050 
Q 1391 4000 1353 3898 
Q 1316 3797 1316 3484 
L 1316 2272 
z
" transform="scale(0.015625)"/>
       <path id="TimesNewRomanPSMT-7a" d="M 2688 878 
L 2653 0 
L 128 0 
L 128 113 
L 2028 2644 
L 1091 2644 
Q 788 2644 694 2605 
Q 600 2566 541 2456 
Q 456 2300 444 2069 
L 319 2069 
L 338 2863 
L 2738 2863 
L 2738 2747 
L 819 209 
L 1863 209 
Q 2191 209 2308 264 
Q 2425 319 2497 456 
Q 2547 556 2581 878 
L 2688 878 
z
" transform="scale(0.015625)"/>
      </defs>
      <use xlink:href="#SimSun-63a5"/>
      <use xlink:href="#SimSun-6536" transform="translate(100 0)"/>
      <use xlink:href="#SimSun-9891" transform="translate(200 0)"/>
      <use xlink:href="#SimSun-7387" transform="translate(300 0)"/>
      <use xlink:href="#TimesNewRomanPSMT-2f" transform="translate(400 0)"/>
      <use xlink:href="#TimesNewRomanPSMT-48" transform="translate(427.783203 0)"/>
      <use xlink:href="#TimesNewRomanPSMT-7a" transform="translate(500 0)"/>
     </g>
    </g>
   </g>
   <g id="line2d_29">
    <path d="M 240.268372 21.071572 
L 246.181172 24.130521 
L 251.99114 27.386085 
L 257.749693 30.86825 
L 263.482537 34.595411 
L 269.24109 38.605102 
L 275.102474 42.959106 
L 281.143812 47.726991 
L 287.467937 53.005112 
L 294.28051 58.98578 
L 301.992857 66.061328 
L 311.890369 75.464624 
L 334.281884 96.835708 
L 342.097062 103.918808 
L 348.961051 109.845021 
L 355.310884 115.038052 
L 361.37793 119.715604 
L 367.265022 123.976271 
L 373.07499 127.907957 
L 378.85925 131.554093 
L 384.643511 134.93868 
L 390.504894 138.111332 
L 394.489607 140.12669 
L 394.489607 140.12669 
" clip-path="url(#pbb3810d5aa)" style="fill: none; stroke: #c5653f; stroke-width: 1.3; stroke-linecap: square"/>
   </g>
   <g id="line2d_30">
    <path d="M 317.391844 146.079446 
L 317.391844 15.118816 
" clip-path="url(#pbb3810d5aa)" style="fill: none; stroke-dasharray: 0.6,0.9; stroke-dashoffset: 0; stroke: #808080; stroke-width: 0.6"/>
   </g>
   <g id="line2d_31">
    <path d="M 240.268372 80.766855 
L 394.515315 80.766855 
" clip-path="url(#pbb3810d5aa)" style="fill: none; stroke-dasharray: 2.4,1.2; stroke-dashoffset: 0; stroke: #808080; stroke-width: 0.6"/>
   </g>
   <g id="patch_7">
    <path d="M 240.268372 146.079446 
L 240.268372 15.118816 
" style="fill: none; stroke: #000000; stroke-width: 0.6; stroke-linejoin: miter; stroke-linecap: square"/>
   </g>
   <g id="patch_8">
    <path d="M 240.268372 146.079446 
L 394.515315 146.079446 
" style="fill: none; stroke: #000000; stroke-width: 0.6; stroke-linejoin: miter; stroke-linecap: square"/>
   </g>
   <g id="text_34">
    <!-- 接近 -->
    <g transform="translate(260.546979 59.93016) scale(0.08 -0.08)">
     <use xlink:href="#SimSun-63a5"/>
     <use xlink:href="#SimSun-8fd1" transform="translate(100 0)"/>
    </g>
   </g>
   <g id="text_35">
    <!-- 远离 -->
    <g transform="translate(358.236709 101.60355) scale(0.08 -0.08)">
     <defs>
      <path id="SimSun-8fdc" d="M 2325 4525 
L 4550 4525 
L 4900 4875 
L 5325 4375 
L 3000 4375 
Q 2825 4375 2550 4300 
L 2325 4525 
z
M 1875 3300 
L 5075 3300 
L 5425 3650 
L 5900 3150 
L 4475 3150 
L 4475 1400 
Q 4425 950 4775 925 
L 5100 925 
Q 5400 900 5425 1225 
Q 5450 1550 5475 1975 
L 5575 1975 
Q 5575 1625 5625 1325 
Q 5675 1025 5925 1000 
Q 5750 650 5350 650 
L 4675 650 
Q 4100 650 4150 1250 
L 4150 3150 
L 3400 3150 
Q 3475 1250 1950 500 
L 1900 575 
Q 3100 1375 3050 3150 
L 2700 3150 
Q 2375 3150 2100 3075 
L 1875 3300 
z
M 875 4900 
L 950 4950 
Q 1350 4650 1512 4450 
Q 1675 4250 1637 4062 
Q 1600 3875 1512 3812 
Q 1425 3750 1375 3750 
Q 1250 3750 1225 4050 
Q 1150 4425 875 4900 
z
M 1600 775 
Q 1825 475 2225 275 
Q 2625 75 3400 50 
Q 4175 25 4850 50 
Q 5525 75 6125 125 
L 6125 25 
Q 5625 -100 5625 -375 
Q 4500 -375 3762 -337 
Q 3025 -300 2525 -137 
Q 2025 25 1775 325 
Q 1525 625 1425 625 
Q 1325 625 1025 350 
Q 725 75 600 -175 
L 250 175 
Q 650 500 1275 775 
L 1275 2650 
L 1075 2650 
Q 750 2650 475 2575 
L 250 2800 
L 1250 2800 
L 1425 3050 
L 1825 2750 
L 1600 2575 
L 1600 775 
z
" transform="scale(0.015625)"/>
     </defs>
     <use xlink:href="#SimSun-8fdc"/>
     <use xlink:href="#SimSun-79bb" transform="translate(100 0)"/>
    </g>
   </g>
   <g id="text_36">
    <!-- 最近通过 -->
    <g transform="translate(318.420157 30.163454) scale(0.075 -0.075)">
     <use xlink:href="#SimSun-6700"/>
     <use xlink:href="#SimSun-8fd1" transform="translate(100 0)"/>
     <use xlink:href="#SimSun-901a" transform="translate(200 0)"/>
     <use xlink:href="#SimSun-8fc7" transform="translate(300 0)"/>
    </g>
   </g>
   <g id="text_37">
    <!-- (b) -->
    <g transform="translate(221.758739 8.062187) scale(0.085 -0.085)">
     <defs>
      <path id="TimesNewRomanPSMT-62" d="M 984 2369 
Q 1400 2947 1881 2947 
Q 2322 2947 2650 2570 
Q 2978 2194 2978 1541 
Q 2978 778 2472 313 
Q 2038 -88 1503 -88 
Q 1253 -88 995 3 
Q 738 94 469 275 
L 469 3241 
Q 469 3728 445 3840 
Q 422 3953 372 3993 
Q 322 4034 247 4034 
Q 159 4034 28 3984 
L -16 4094 
L 844 4444 
L 984 4444 
L 984 2369 
z
M 984 2169 
L 984 456 
Q 1144 300 1314 220 
Q 1484 141 1663 141 
Q 1947 141 2192 453 
Q 2438 766 2438 1363 
Q 2438 1913 2192 2208 
Q 1947 2503 1634 2503 
Q 1469 2503 1303 2419 
Q 1178 2356 984 2169 
z
" transform="scale(0.015625)"/>
     </defs>
     <use xlink:href="#TimesNewRomanPSMT-28"/>
     <use xlink:href="#TimesNewRomanPSMT-62" transform="translate(33.300781 0)"/>
     <use xlink:href="#TimesNewRomanPSMT-29" transform="translate(83.300781 0)"/>
    </g>
   </g>
  </g>
 </g>
 <defs>
  <clipPath id="p4b4b609b74">
   <rect x="32.035" y="15.118816" width="154.246943" height="130.96063"/>
  </clipPath>
  <clipPath id="pbb3810d5aa">
   <rect x="240.268372" y="15.118816" width="154.246943" height="130.96063"/>
  </clipPath>
 </defs>
</svg>
